%TF.GenerationSoftware,KiCad,Pcbnew,9.0.9-9.0.9~ubuntu24.04.1*%
%TF.CreationDate,2026-07-05T15:17:35+08:00*%
%TF.ProjectId,DT80-IO-Exp-v02,44543830-2d49-44f2-9d45-78702d763032,rev?*%
%TF.SameCoordinates,Original*%
%TF.FileFunction,Copper,L2,Bot*%
%TF.FilePolarity,Positive*%
%FSLAX46Y46*%
G04 Gerber Fmt 4.6, Leading zero omitted, Abs format (unit mm)*
G04 Created by KiCad (PCBNEW 9.0.9-9.0.9~ubuntu24.04.1) date 2026-07-05 15:17:35*
%MOMM*%
%LPD*%
G01*
G04 APERTURE LIST*
G04 Aperture macros list*
%AMRoundRect*
0 Rectangle with rounded corners*
0 $1 Rounding radius*
0 $2 $3 $4 $5 $6 $7 $8 $9 X,Y pos of 4 corners*
0 Add a 4 corners polygon primitive as box body*
4,1,4,$2,$3,$4,$5,$6,$7,$8,$9,$2,$3,0*
0 Add four circle primitives for the rounded corners*
1,1,$1+$1,$2,$3*
1,1,$1+$1,$4,$5*
1,1,$1+$1,$6,$7*
1,1,$1+$1,$8,$9*
0 Add four rect primitives between the rounded corners*
20,1,$1+$1,$2,$3,$4,$5,0*
20,1,$1+$1,$4,$5,$6,$7,0*
20,1,$1+$1,$6,$7,$8,$9,0*
20,1,$1+$1,$8,$9,$2,$3,0*%
G04 Aperture macros list end*
%TA.AperFunction,ComponentPad*%
%ADD10R,1.700000X1.700000*%
%TD*%
%TA.AperFunction,ComponentPad*%
%ADD11C,1.700000*%
%TD*%
%TA.AperFunction,HeatsinkPad*%
%ADD12C,0.600000*%
%TD*%
%TA.AperFunction,ComponentPad*%
%ADD13RoundRect,0.250000X-0.550000X-0.550000X0.550000X-0.550000X0.550000X0.550000X-0.550000X0.550000X0*%
%TD*%
%TA.AperFunction,ComponentPad*%
%ADD14C,1.600000*%
%TD*%
%TA.AperFunction,HeatsinkPad*%
%ADD15C,0.500000*%
%TD*%
%TA.AperFunction,HeatsinkPad*%
%ADD16R,1.900000X2.900000*%
%TD*%
%TA.AperFunction,ViaPad*%
%ADD17C,0.600000*%
%TD*%
%TA.AperFunction,Conductor*%
%ADD18C,0.200000*%
%TD*%
%TA.AperFunction,Profile*%
%ADD19C,0.100000*%
%TD*%
G04 APERTURE END LIST*
D10*
%TO.P,J17,1*%
%TO.N,+3V3*%
X112000000Y-110000000D03*
D11*
%TO.P,J17,2*%
%TO.N,I2C_SDA*%
X112000000Y-112540000D03*
%TO.P,J17,3*%
%TO.N,I2C_SCL*%
X112000000Y-115080000D03*
%TO.P,J17,4*%
%TO.N,GND*%
X112000000Y-117620000D03*
%TD*%
D10*
%TO.P,J10,1*%
%TO.N,GND*%
X146000000Y-95000000D03*
D11*
%TO.P,J10,2*%
%TO.N,DI2_IN*%
X143460000Y-95000000D03*
%TD*%
D12*
%TO.P,U2,39*%
%TO.N,N/C*%
X72795000Y-43327500D03*
X72795000Y-44852500D03*
X73557500Y-42565000D03*
X73557500Y-44090000D03*
X73557500Y-45615000D03*
X74320000Y-43327500D03*
X74320000Y-44852500D03*
X75082500Y-42565000D03*
X75082500Y-44090000D03*
X75082500Y-45615000D03*
X75845000Y-43327500D03*
X75845000Y-44852500D03*
%TD*%
D10*
%TO.P,J2,1*%
%TO.N,RS485_A*%
X8000000Y-35000000D03*
D11*
%TO.P,J2,2*%
%TO.N,RS485_B*%
X10540000Y-35000000D03*
%TD*%
D10*
%TO.P,J19,1*%
%TO.N,+5V*%
X168000000Y-110000000D03*
D11*
%TO.P,J19,2*%
%TO.N,PULSE_COUNT*%
X168000000Y-112540000D03*
%TO.P,J19,3*%
%TO.N,GND*%
X168000000Y-115080000D03*
%TD*%
D10*
%TO.P,J1,1*%
%TO.N,12V_IN*%
X8000000Y-15000000D03*
D11*
%TO.P,J1,2*%
%TO.N,GND*%
X10540000Y-15000000D03*
%TD*%
D10*
%TO.P,J4,1*%
%TO.N,AI2*%
X150000000Y-24000000D03*
D11*
%TO.P,J4,2*%
%TO.N,GND*%
X147460000Y-24000000D03*
%TD*%
D10*
%TO.P,J6,1*%
%TO.N,AI4*%
X150000000Y-48000000D03*
D11*
%TO.P,J6,2*%
%TO.N,GND*%
X147460000Y-48000000D03*
%TD*%
D13*
%TO.P,C1,1*%
%TO.N,12V_IN*%
X18000000Y-75000000D03*
D14*
%TO.P,C1,2*%
%TO.N,GND*%
X20500000Y-75000000D03*
%TD*%
D13*
%TO.P,C2,1*%
%TO.N,+5V*%
X48000000Y-88000000D03*
D14*
%TO.P,C2,2*%
%TO.N,GND*%
X50500000Y-88000000D03*
%TD*%
D10*
%TO.P,J13,1*%
%TO.N,12V_IN*%
X190000000Y-42000000D03*
D11*
%TO.P,J13,2*%
%TO.N,BP_LOOP_IN*%
X187460000Y-42000000D03*
%TO.P,J13,3*%
%TO.N,GND*%
X184920000Y-42000000D03*
%TD*%
D10*
%TO.P,J16,1*%
%TO.N,12V_IN*%
X190000000Y-87000000D03*
D11*
%TO.P,J16,2*%
%TO.N,RS485_A*%
X187460000Y-87000000D03*
%TO.P,J16,3*%
%TO.N,RS485_B*%
X184920000Y-87000000D03*
%TO.P,J16,4*%
%TO.N,GND*%
X182380000Y-87000000D03*
%TD*%
D10*
%TO.P,J8,1*%
%TO.N,REL2*%
X150000000Y-78000000D03*
D11*
%TO.P,J8,2*%
%TO.N,+5V*%
X147460000Y-78000000D03*
%TD*%
D10*
%TO.P,J5,1*%
%TO.N,AI3*%
X150000000Y-36000000D03*
D11*
%TO.P,J5,2*%
%TO.N,GND*%
X147460000Y-36000000D03*
%TD*%
D10*
%TO.P,J3,1*%
%TO.N,AI1*%
X150000000Y-12000000D03*
D11*
%TO.P,J3,2*%
%TO.N,GND*%
X147460000Y-12000000D03*
%TD*%
D10*
%TO.P,J12,1*%
%TO.N,AI3*%
X190000000Y-27000000D03*
D11*
%TO.P,J12,2*%
%TO.N,AI4*%
X187460000Y-27000000D03*
%TO.P,J12,3*%
%TO.N,GND*%
X184920000Y-27000000D03*
%TO.P,J12,4*%
%TO.N,+5V*%
X182380000Y-27000000D03*
%TD*%
D10*
%TO.P,J15,1*%
%TO.N,12V_IN*%
X190000000Y-72000000D03*
D11*
%TO.P,J15,2*%
%TO.N,SDI12_DATA*%
X187460000Y-72000000D03*
%TO.P,J15,3*%
%TO.N,GND*%
X184920000Y-72000000D03*
%TD*%
D10*
%TO.P,J9,1*%
%TO.N,GND*%
X146000000Y-90000000D03*
D11*
%TO.P,J9,2*%
%TO.N,DI1_IN*%
X143460000Y-90000000D03*
%TD*%
D15*
%TO.P,U5,9*%
%TO.N,GND*%
X34300000Y-73800000D03*
X34300000Y-75000000D03*
X34300000Y-76200000D03*
D16*
X35000000Y-75000000D03*
D15*
X35700000Y-73800000D03*
X35700000Y-75000000D03*
X35700000Y-76200000D03*
%TD*%
D10*
%TO.P,J18,1*%
%TO.N,+3V3*%
X140000000Y-110000000D03*
D11*
%TO.P,J18,2*%
%TO.N,ONEWIRE_DATA*%
X140000000Y-112540000D03*
%TO.P,J18,3*%
%TO.N,GND*%
X140000000Y-115080000D03*
%TD*%
D10*
%TO.P,J7,1*%
%TO.N,REL1*%
X150000000Y-65000000D03*
D11*
%TO.P,J7,2*%
%TO.N,+5V*%
X147460000Y-65000000D03*
%TD*%
D13*
%TO.P,C3,1*%
%TO.N,+3V3*%
X68000000Y-88000000D03*
D14*
%TO.P,C3,2*%
%TO.N,GND*%
X70500000Y-88000000D03*
%TD*%
D10*
%TO.P,J14,1*%
%TO.N,RTD_FORCE+*%
X190000000Y-57000000D03*
D11*
%TO.P,J14,2*%
%TO.N,RTD_SENSE+*%
X187460000Y-57000000D03*
%TO.P,J14,3*%
%TO.N,RTD_SENSE-*%
X184920000Y-57000000D03*
%TO.P,J14,4*%
%TO.N,RTD_FORCE-*%
X182380000Y-57000000D03*
%TD*%
D10*
%TO.P,J11,1*%
%TO.N,AI1*%
X190000000Y-12000000D03*
D11*
%TO.P,J11,2*%
%TO.N,AI2*%
X187460000Y-12000000D03*
%TO.P,J11,3*%
%TO.N,GND*%
X184920000Y-12000000D03*
%TO.P,J11,4*%
%TO.N,+5V*%
X182380000Y-12000000D03*
%TD*%
D17*
%TO.N,RS485_B*%
X148072000Y-68973100D03*
X157878500Y-87081400D03*
%TO.N,RS485_DE*%
X67522000Y-45365000D03*
X47061300Y-32316900D03*
%TO.N,DI2*%
X118179700Y-50720000D03*
X122750000Y-87922400D03*
%TO.N,DI1*%
X85060900Y-83452500D03*
X85003000Y-51990000D03*
%TO.N,RS485_A*%
X153603600Y-86450400D03*
X132786400Y-36588600D03*
%TO.N,+5V*%
X129637600Y-28000000D03*
X34628900Y-32888000D03*
X46215600Y-77588900D03*
%TO.N,AI4*%
X158503200Y-39123500D03*
%TO.N,GND*%
X183668200Y-83452500D03*
X186241900Y-54134500D03*
X20500000Y-36270000D03*
%TO.N,UART_RX*%
X47510800Y-30658800D03*
X67522000Y-41688300D03*
%TO.N,ADDR2*%
X67504200Y-50638400D03*
X47305900Y-13615500D03*
%TO.N,ADDR0*%
X50722100Y-48180000D03*
X43227500Y-12825000D03*
%TO.N,I2C_SCL*%
X125708500Y-27987600D03*
X96773800Y-39291600D03*
X114486000Y-18952900D03*
%TO.N,UART_TX*%
X67522000Y-40560000D03*
X64075100Y-39475500D03*
%TO.N,REL2*%
X125574500Y-59913300D03*
X138102500Y-72441300D03*
%TO.N,I2C_SDA*%
X128441700Y-27223400D03*
X92702500Y-43100000D03*
X125066900Y-20057300D03*
%TO.N,ESP32_EN*%
X64775700Y-10472500D03*
X52790700Y-38656000D03*
%TO.N,+3V3*%
X64895100Y-74657100D03*
X97355500Y-37007900D03*
X110990400Y-20822300D03*
X67525500Y-38020000D03*
%TO.N,ADDR1*%
X47397900Y-49450000D03*
X37510200Y-12074500D03*
%TO.N,PULSE_COUNT*%
X132656800Y-54348200D03*
%TO.N,ONEWIRE_DATA*%
X118848900Y-63697300D03*
%TO.N,RTD_MISO*%
X138225200Y-45640000D03*
X151292400Y-57025000D03*
%TD*%
D18*
%TO.N,RS485_B*%
X157878500Y-78779600D02*
X148072000Y-68973100D01*
X157878500Y-87081400D02*
X157878500Y-78779600D01*
%TO.N,RS485_DE*%
X60353300Y-45365000D02*
X53042600Y-38054300D01*
X52798700Y-38054300D02*
X47061300Y-32316900D01*
X53042600Y-38054300D02*
X52798700Y-38054300D01*
X67522000Y-45365000D02*
X60353300Y-45365000D01*
%TO.N,DI2*%
X122750000Y-87922400D02*
X118228600Y-83401000D01*
X118228600Y-50768800D02*
X118228500Y-50768800D01*
X118228500Y-50768800D02*
X118179700Y-50720000D01*
X118228600Y-83401000D02*
X118228600Y-50768800D01*
%TO.N,DI1*%
X85060900Y-83452500D02*
X85060900Y-52047900D01*
X85060900Y-52047900D02*
X85003000Y-51990000D01*
%TO.N,RS485_A*%
X135045500Y-38847700D02*
X135045500Y-67892300D01*
X135045500Y-67892300D02*
X153603600Y-86450400D01*
X132786400Y-36588600D02*
X135045500Y-38847700D01*
%TO.N,+5V*%
X51606900Y-88465500D02*
X51606900Y-82980200D01*
X49117000Y-89117000D02*
X50955400Y-89117000D01*
X50955400Y-89117000D02*
X51606900Y-88465500D01*
X51606900Y-82980200D02*
X46215600Y-77588900D01*
X168000000Y-98540000D02*
X147460000Y-78000000D01*
X129637600Y-31903800D02*
X129637600Y-28000000D01*
X182380000Y-27000000D02*
X153556900Y-55823100D01*
X48000000Y-88000000D02*
X49117000Y-89117000D01*
X182380000Y-12000000D02*
X182380000Y-27000000D01*
X34628900Y-32888000D02*
X34628900Y-66002200D01*
X147460000Y-61920000D02*
X147460000Y-65000000D01*
X34628900Y-66002200D02*
X46215600Y-77588900D01*
X168000000Y-110000000D02*
X168000000Y-98540000D01*
X153556900Y-55823100D02*
X129637600Y-31903800D01*
X153556900Y-55823100D02*
X147460000Y-61920000D01*
X147460000Y-65000000D02*
X147460000Y-78000000D01*
%TO.N,AI4*%
X150000000Y-46848300D02*
X150778400Y-46848300D01*
X150000000Y-48000000D02*
X150000000Y-46848300D01*
X150778400Y-46848300D02*
X158503200Y-39123500D01*
%TO.N,GND*%
X147460000Y-36000000D02*
X147460000Y-24000000D01*
X186110600Y-54134500D02*
X186241900Y-54134500D01*
X20500000Y-36270000D02*
X20500000Y-75000000D01*
X147460000Y-48000000D02*
X147460000Y-36000000D01*
X146000000Y-90000000D02*
X146000000Y-95000000D01*
X184920000Y-27000000D02*
X184920000Y-42000000D01*
X184920000Y-42000000D02*
X186110600Y-43190600D01*
X182380000Y-84740700D02*
X183668200Y-83452500D01*
X184920000Y-12000000D02*
X184920000Y-27000000D01*
X186110600Y-43190600D02*
X186110600Y-54134500D01*
X10540000Y-15000000D02*
X20500000Y-24960000D01*
X146000000Y-109080000D02*
X146000000Y-95000000D01*
X20500000Y-24960000D02*
X20500000Y-36270000D01*
X183668200Y-83452500D02*
X183668200Y-73251800D01*
X35700000Y-76200000D02*
X35700000Y-75000000D01*
X35700000Y-73800000D02*
X35700000Y-75000000D01*
X182380000Y-87000000D02*
X182380000Y-84740700D01*
X147460000Y-12000000D02*
X147460000Y-24000000D01*
X38700000Y-76200000D02*
X35700000Y-76200000D01*
X183668200Y-73251800D02*
X184920000Y-72000000D01*
X50500000Y-88000000D02*
X38700000Y-76200000D01*
X186110600Y-54134500D02*
X186110600Y-70809400D01*
X34300000Y-76200000D02*
X34300000Y-75000000D01*
X35000000Y-75000000D02*
X34300000Y-75000000D01*
X186110600Y-70809400D02*
X184920000Y-72000000D01*
X34300000Y-75000000D02*
X34300000Y-73800000D01*
X140000000Y-115080000D02*
X146000000Y-109080000D01*
%TO.N,12V_IN*%
X18000000Y-26151700D02*
X18000000Y-75000000D01*
X190000000Y-72000000D02*
X190000000Y-70848300D01*
X8000000Y-15000000D02*
X8000000Y-16151700D01*
X190000000Y-70848300D02*
X188848300Y-69696600D01*
X8000000Y-16151700D02*
X18000000Y-26151700D01*
X190000000Y-42000000D02*
X190000000Y-43151700D01*
X188848300Y-44303400D02*
X190000000Y-43151700D01*
X190000000Y-87000000D02*
X190000000Y-72000000D01*
X188848300Y-69696600D02*
X188848300Y-44303400D01*
%TO.N,UART_RX*%
X47967200Y-31115200D02*
X47510800Y-30658800D01*
X67522000Y-41688300D02*
X57325900Y-41688300D01*
X53007200Y-37652600D02*
X47967200Y-32612600D01*
X57325900Y-41688300D02*
X53290200Y-37652600D01*
X53290200Y-37652600D02*
X53007200Y-37652600D01*
X47967200Y-32612600D02*
X47967200Y-31115200D01*
%TO.N,ADDR2*%
X47305900Y-13615500D02*
X46013700Y-14907700D01*
X46013700Y-32744300D02*
X63907800Y-50638400D01*
X46013700Y-14907700D02*
X46013700Y-32744300D01*
X63907800Y-50638400D02*
X67504200Y-50638400D01*
%TO.N,ADDR0*%
X43227500Y-12825000D02*
X43227500Y-40685400D01*
X43227500Y-40685400D02*
X50722100Y-48180000D01*
%TO.N,I2C_SCL*%
X114486000Y-18952900D02*
X114486000Y-21576600D01*
X113591400Y-113488600D02*
X112000000Y-115080000D01*
X120897000Y-27987600D02*
X125708500Y-27987600D01*
X113591400Y-56109200D02*
X113591400Y-113488600D01*
X114487400Y-21578000D02*
X120897000Y-27987600D01*
X114487400Y-21578000D02*
X96773800Y-39291600D01*
X96773800Y-39291600D02*
X113591400Y-56109200D01*
X114486000Y-21576600D02*
X114487400Y-21578000D01*
%TO.N,UART_TX*%
X64075100Y-39475500D02*
X65159600Y-40560000D01*
X65159600Y-40560000D02*
X67522000Y-40560000D01*
%TO.N,REL2*%
X138102500Y-72441300D02*
X125574500Y-59913300D01*
%TO.N,I2C_SDA*%
X125066900Y-20057300D02*
X125066900Y-23848600D01*
X123329800Y-18320200D02*
X125066900Y-20057300D01*
X112000000Y-112540000D02*
X113151700Y-111388300D01*
X113151700Y-63549200D02*
X92702500Y-43100000D01*
X114189100Y-18320200D02*
X123329800Y-18320200D01*
X113151700Y-111388300D02*
X113151700Y-63549200D01*
X113624700Y-18884600D02*
X114189100Y-18320200D01*
X92702500Y-42512000D02*
X113624700Y-21589800D01*
X125066900Y-23848600D02*
X128441700Y-27223400D01*
X92702500Y-43100000D02*
X92702500Y-42512000D01*
X113624700Y-21589800D02*
X113624700Y-18884600D01*
%TO.N,ESP32_EN*%
X46458400Y-32575600D02*
X46458400Y-18351600D01*
X52790700Y-38656000D02*
X52538800Y-38656000D01*
X52538800Y-38656000D02*
X46458400Y-32575600D01*
X54337500Y-10472500D02*
X64775700Y-10472500D01*
X46458400Y-18351600D02*
X54337500Y-10472500D01*
%TO.N,+3V3*%
X68000000Y-88000000D02*
X90000000Y-110000000D01*
X68144000Y-38638500D02*
X67525500Y-38020000D01*
X64895100Y-84895100D02*
X64895100Y-74657100D01*
X97356700Y-37009100D02*
X97622300Y-37009100D01*
X64895100Y-74657100D02*
X68144000Y-71408200D01*
X68144000Y-71408200D02*
X68144000Y-38638500D01*
X97622300Y-37009100D02*
X110990400Y-23641000D01*
X95724900Y-38638500D02*
X97355500Y-37007900D01*
X68000000Y-88000000D02*
X64895100Y-84895100D01*
X68144000Y-38638500D02*
X95724900Y-38638500D01*
X110990400Y-23641000D02*
X110990400Y-20822300D01*
X90000000Y-110000000D02*
X112000000Y-110000000D01*
X97355500Y-37007900D02*
X97356700Y-37009100D01*
%TO.N,ADDR1*%
X37510200Y-12074500D02*
X37510200Y-39562300D01*
X37510200Y-39562300D02*
X47397900Y-49450000D01*
%TO.N,PULSE_COUNT*%
X152608500Y-86096400D02*
X132656800Y-66144700D01*
X168000000Y-112540000D02*
X152608500Y-97148500D01*
X132656800Y-66144700D02*
X132656800Y-54348200D01*
X152608500Y-97148500D02*
X152608500Y-86096400D01*
%TO.N,ONEWIRE_DATA*%
X138610200Y-83458600D02*
X118848900Y-63697300D01*
X140000000Y-112540000D02*
X138610200Y-111150200D01*
X138610200Y-111150200D02*
X138610200Y-83458600D01*
%TO.N,RTD_MISO*%
X149610200Y-57025000D02*
X138225200Y-45640000D01*
X151292400Y-57025000D02*
X149610200Y-57025000D01*
%TD*%
D19*
X0Y0D02*
X200000000Y0D01*
X0Y-120000000D02*
X0Y0D01*
X200000000Y0D02*
X200000000Y-120000000D01*
X200000000Y-120000000D02*
X0Y-120000000D01*
M02*
