%TF.GenerationSoftware,KiCad,Pcbnew,9.0.9-9.0.9~ubuntu24.04.1*%
%TF.CreationDate,2026-07-05T15:17:35+08:00*%
%TF.ProjectId,DT80-IO-Exp-v02,44543830-2d49-44f2-9d45-78702d763032,rev?*%
%TF.SameCoordinates,Original*%
%TF.FileFunction,Paste,Top*%
%TF.FilePolarity,Positive*%
%FSLAX46Y46*%
G04 Gerber Fmt 4.6, Leading zero omitted, Abs format (unit mm)*
G04 Created by KiCad (PCBNEW 9.0.9-9.0.9~ubuntu24.04.1) date 2026-07-05 15:17:35*
%MOMM*%
%LPD*%
G01*
G04 APERTURE LIST*
G04 Aperture macros list*
%AMRoundRect*
0 Rectangle with rounded corners*
0 $1 Rounding radius*
0 $2 $3 $4 $5 $6 $7 $8 $9 X,Y pos of 4 corners*
0 Add a 4 corners polygon primitive as box body*
4,1,4,$2,$3,$4,$5,$6,$7,$8,$9,$2,$3,0*
0 Add four circle primitives for the rounded corners*
1,1,$1+$1,$2,$3*
1,1,$1+$1,$4,$5*
1,1,$1+$1,$6,$7*
1,1,$1+$1,$8,$9*
0 Add four rect primitives between the rounded corners*
20,1,$1+$1,$2,$3,$4,$5,0*
20,1,$1+$1,$4,$5,$6,$7,0*
20,1,$1+$1,$6,$7,$8,$9,0*
20,1,$1+$1,$8,$9,$2,$3,0*%
G04 Aperture macros list end*
%ADD10RoundRect,0.137500X-0.587500X-0.137500X0.587500X-0.137500X0.587500X0.137500X-0.587500X0.137500X0*%
%ADD11RoundRect,0.150000X-0.825000X-0.150000X0.825000X-0.150000X0.825000X0.150000X-0.825000X0.150000X0*%
%ADD12R,1.500000X0.900000*%
%ADD13R,0.900000X1.500000*%
%ADD14R,1.050000X1.050000*%
%ADD15RoundRect,0.225000X-0.225000X-0.250000X0.225000X-0.250000X0.225000X0.250000X-0.225000X0.250000X0*%
%ADD16RoundRect,0.200000X0.275000X-0.200000X0.275000X0.200000X-0.275000X0.200000X-0.275000X-0.200000X0*%
%ADD17RoundRect,0.225000X0.250000X-0.225000X0.250000X0.225000X-0.250000X0.225000X-0.250000X-0.225000X0*%
%ADD18RoundRect,0.375000X-0.625000X-0.375000X0.625000X-0.375000X0.625000X0.375000X-0.625000X0.375000X0*%
%ADD19RoundRect,0.500000X-0.500000X-1.400000X0.500000X-1.400000X0.500000X1.400000X-0.500000X1.400000X0*%
%ADD20RoundRect,0.200000X-0.200000X-0.275000X0.200000X-0.275000X0.200000X0.275000X-0.200000X0.275000X0*%
%ADD21RoundRect,0.112500X0.112500X-0.187500X0.112500X0.187500X-0.112500X0.187500X-0.112500X-0.187500X0*%
%ADD22RoundRect,0.250000X-0.255000X-0.440000X0.255000X-0.440000X0.255000X0.440000X-0.255000X0.440000X0*%
%ADD23RoundRect,0.250000X-0.970000X-0.310000X0.970000X-0.310000X0.970000X0.310000X-0.970000X0.310000X0*%
%ADD24RoundRect,0.100000X-0.637500X-0.100000X0.637500X-0.100000X0.637500X0.100000X-0.637500X0.100000X0*%
%ADD25RoundRect,0.075000X-0.650000X-0.075000X0.650000X-0.075000X0.650000X0.075000X-0.650000X0.075000X0*%
%TA.AperFunction,Profile*%
%ADD26C,0.100000*%
%TD*%
G04 APERTURE END LIST*
D10*
%TO.C,Q1*%
X101250000Y-88730000D03*
X101250000Y-91270000D03*
X106750000Y-91270000D03*
X106750000Y-88730000D03*
%TD*%
D11*
%TO.C,U4*%
X115525000Y-60555000D03*
X115525000Y-61825000D03*
X115525000Y-63095000D03*
X115525000Y-64365000D03*
X115525000Y-65635000D03*
X115525000Y-66905000D03*
X115525000Y-68175000D03*
X115525000Y-69445000D03*
X120475000Y-69445000D03*
X120475000Y-68175000D03*
X120475000Y-66905000D03*
X120475000Y-65635000D03*
X120475000Y-64365000D03*
X120475000Y-63095000D03*
X120475000Y-61825000D03*
X120475000Y-60555000D03*
%TD*%
D12*
%TO.C,U2*%
X66250000Y-36750000D03*
X66250000Y-38020000D03*
X66250000Y-39290000D03*
X66250000Y-40560000D03*
X66250000Y-41830000D03*
X66250000Y-43100000D03*
X66250000Y-44370000D03*
X66250000Y-45640000D03*
X66250000Y-46910000D03*
X66250000Y-48180000D03*
X66250000Y-49450000D03*
X66250000Y-50720000D03*
X66250000Y-51990000D03*
X66250000Y-53260000D03*
D13*
X69290000Y-54510000D03*
X70560000Y-54510000D03*
X71830000Y-54510000D03*
X73100000Y-54510000D03*
X74370000Y-54510000D03*
X75640000Y-54510000D03*
X76910000Y-54510000D03*
X78180000Y-54510000D03*
X79450000Y-54510000D03*
X80720000Y-54510000D03*
D12*
X83750000Y-53260000D03*
X83750000Y-51990000D03*
X83750000Y-50720000D03*
X83750000Y-49450000D03*
X83750000Y-48180000D03*
X83750000Y-46910000D03*
X83750000Y-45640000D03*
X83750000Y-44370000D03*
X83750000Y-43100000D03*
X83750000Y-41830000D03*
X83750000Y-40560000D03*
X83750000Y-39290000D03*
X83750000Y-38020000D03*
X83750000Y-36750000D03*
D14*
X72795000Y-42565000D03*
X72795000Y-44090000D03*
X72795000Y-45615000D03*
X74320000Y-42565000D03*
X74320000Y-44090000D03*
X74320000Y-45615000D03*
X75845000Y-42565000D03*
X75845000Y-44090000D03*
X75845000Y-45615000D03*
%TD*%
D10*
%TO.C,Q2*%
X117250000Y-88730000D03*
X117250000Y-91270000D03*
X122750000Y-91270000D03*
X122750000Y-88730000D03*
%TD*%
D15*
%TO.C,C7*%
X171225000Y-108000000D03*
X172775000Y-108000000D03*
%TD*%
D16*
%TO.C,R6*%
X68000000Y-12825000D03*
X68000000Y-11175000D03*
%TD*%
%TO.C,R7*%
X72000000Y-12825000D03*
X72000000Y-11175000D03*
%TD*%
%TO.C,R2*%
X116000000Y-96825000D03*
X116000000Y-95175000D03*
%TD*%
%TO.C,R10*%
X172000000Y-42825000D03*
X172000000Y-41175000D03*
%TD*%
D17*
%TO.C,C6*%
X180000000Y-42775000D03*
X180000000Y-41225000D03*
%TD*%
D18*
%TO.C,U6*%
X56850000Y-72700000D03*
X56850000Y-75000000D03*
D19*
X63150000Y-75000000D03*
D18*
X56850000Y-77300000D03*
%TD*%
D20*
%TO.C,R13*%
X163175000Y-108000000D03*
X164825000Y-108000000D03*
%TD*%
D16*
%TO.C,R1*%
X100000000Y-96825000D03*
X100000000Y-95175000D03*
%TD*%
%TO.C,R5*%
X64000000Y-12825000D03*
X64000000Y-11175000D03*
%TD*%
%TO.C,R3*%
X112000000Y-20825000D03*
X112000000Y-19175000D03*
%TD*%
%TO.C,R4*%
X116000000Y-20825000D03*
X116000000Y-19175000D03*
%TD*%
%TO.C,R8*%
X76000000Y-12825000D03*
X76000000Y-11175000D03*
%TD*%
D21*
%TO.C,D3*%
X168000000Y-86050000D03*
X168000000Y-83950000D03*
%TD*%
%TO.C,D5*%
X180000000Y-109050000D03*
X180000000Y-106950000D03*
%TD*%
D15*
%TO.C,C5*%
X153225000Y-55000000D03*
X154775000Y-55000000D03*
%TD*%
%TO.C,C4*%
X153225000Y-51000000D03*
X154775000Y-51000000D03*
%TD*%
D16*
%TO.C,R11*%
X176000000Y-42825000D03*
X176000000Y-41175000D03*
%TD*%
D22*
%TO.C,U5*%
X34400000Y-74175000D03*
X34400000Y-75825000D03*
X35600000Y-74175000D03*
X35600000Y-75825000D03*
D11*
X32525000Y-73095000D03*
X32525000Y-74365000D03*
X32525000Y-75635000D03*
X32525000Y-76905000D03*
X37475000Y-76905000D03*
X37475000Y-75635000D03*
X37475000Y-74365000D03*
X37475000Y-73095000D03*
%TD*%
D20*
%TO.C,R12*%
X157175000Y-88000000D03*
X158825000Y-88000000D03*
%TD*%
D23*
%TO.C,SW1*%
X25695000Y-8190000D03*
X25695000Y-10730000D03*
X25695000Y-13270000D03*
X25695000Y-15810000D03*
X34305000Y-15810000D03*
X34305000Y-13270000D03*
X34305000Y-10730000D03*
X34305000Y-8190000D03*
%TD*%
D24*
%TO.C,U7*%
X163137500Y-55075000D03*
X163137500Y-55725000D03*
X163137500Y-56375000D03*
X163137500Y-57025000D03*
X163137500Y-57675000D03*
X163137500Y-58325000D03*
X163137500Y-58975000D03*
X163137500Y-59625000D03*
X163137500Y-60275000D03*
X163137500Y-60925000D03*
X168862500Y-60925000D03*
X168862500Y-60275000D03*
X168862500Y-59625000D03*
X168862500Y-58975000D03*
X168862500Y-58325000D03*
X168862500Y-57675000D03*
X168862500Y-57025000D03*
X168862500Y-56375000D03*
X168862500Y-55725000D03*
X168862500Y-55075000D03*
%TD*%
D25*
%TO.C,U3*%
X122800000Y-27000000D03*
X122800000Y-27500000D03*
X122800000Y-28000000D03*
X122800000Y-28500000D03*
X122800000Y-29000000D03*
X127200000Y-29000000D03*
X127200000Y-28500000D03*
X127200000Y-28000000D03*
X127200000Y-27500000D03*
X127200000Y-27000000D03*
%TD*%
D21*
%TO.C,D4*%
X176000000Y-73050000D03*
X176000000Y-70950000D03*
%TD*%
D11*
%TO.C,U1*%
X32525000Y-33095000D03*
X32525000Y-34365000D03*
X32525000Y-35635000D03*
X32525000Y-36905000D03*
X37475000Y-36905000D03*
X37475000Y-35635000D03*
X37475000Y-34365000D03*
X37475000Y-33095000D03*
%TD*%
D21*
%TO.C,D1*%
X166000000Y-43050000D03*
X166000000Y-40950000D03*
%TD*%
D16*
%TO.C,R9*%
X178000000Y-56825000D03*
X178000000Y-55175000D03*
%TD*%
D21*
%TO.C,D2*%
X164000000Y-86050000D03*
X164000000Y-83950000D03*
%TD*%
D26*
X0Y0D02*
X200000000Y0D01*
X0Y-120000000D02*
X0Y0D01*
X200000000Y0D02*
X200000000Y-120000000D01*
X200000000Y-120000000D02*
X0Y-120000000D01*
M02*
