%TF.GenerationSoftware,KiCad,Pcbnew,9.0.9-9.0.9~ubuntu24.04.1*%
%TF.CreationDate,2026-07-05T15:17:35+08:00*%
%TF.ProjectId,DT80-IO-Exp-v02,44543830-2d49-44f2-9d45-78702d763032,rev?*%
%TF.SameCoordinates,Original*%
%TF.FileFunction,Soldermask,Bot*%
%TF.FilePolarity,Negative*%
%FSLAX46Y46*%
G04 Gerber Fmt 4.6, Leading zero omitted, Abs format (unit mm)*
G04 Created by KiCad (PCBNEW 9.0.9-9.0.9~ubuntu24.04.1) date 2026-07-05 15:17:35*
%MOMM*%
%LPD*%
G01*
G04 APERTURE LIST*
G04 Aperture macros list*
%AMRoundRect*
0 Rectangle with rounded corners*
0 $1 Rounding radius*
0 $2 $3 $4 $5 $6 $7 $8 $9 X,Y pos of 4 corners*
0 Add a 4 corners polygon primitive as box body*
4,1,4,$2,$3,$4,$5,$6,$7,$8,$9,$2,$3,0*
0 Add four circle primitives for the rounded corners*
1,1,$1+$1,$2,$3*
1,1,$1+$1,$4,$5*
1,1,$1+$1,$6,$7*
1,1,$1+$1,$8,$9*
0 Add four rect primitives between the rounded corners*
20,1,$1+$1,$2,$3,$4,$5,0*
20,1,$1+$1,$4,$5,$6,$7,0*
20,1,$1+$1,$6,$7,$8,$9,0*
20,1,$1+$1,$8,$9,$2,$3,0*%
G04 Aperture macros list end*
%ADD10R,1.700000X1.700000*%
%ADD11C,1.700000*%
%ADD12RoundRect,0.250000X-0.550000X-0.550000X0.550000X-0.550000X0.550000X0.550000X-0.550000X0.550000X0*%
%ADD13C,1.600000*%
%TA.AperFunction,Profile*%
%ADD14C,0.100000*%
%TD*%
G04 APERTURE END LIST*
D10*
%TO.C,J17*%
X112000000Y-110000000D03*
D11*
X112000000Y-112540000D03*
X112000000Y-115080000D03*
X112000000Y-117620000D03*
%TD*%
D10*
%TO.C,J10*%
X146000000Y-95000000D03*
D11*
X143460000Y-95000000D03*
%TD*%
D10*
%TO.C,J2*%
X8000000Y-35000000D03*
D11*
X10540000Y-35000000D03*
%TD*%
D10*
%TO.C,J19*%
X168000000Y-110000000D03*
D11*
X168000000Y-112540000D03*
X168000000Y-115080000D03*
%TD*%
D10*
%TO.C,J1*%
X8000000Y-15000000D03*
D11*
X10540000Y-15000000D03*
%TD*%
D10*
%TO.C,J4*%
X150000000Y-24000000D03*
D11*
X147460000Y-24000000D03*
%TD*%
D10*
%TO.C,J6*%
X150000000Y-48000000D03*
D11*
X147460000Y-48000000D03*
%TD*%
D12*
%TO.C,C1*%
X18000000Y-75000000D03*
D13*
X20500000Y-75000000D03*
%TD*%
D12*
%TO.C,C2*%
X48000000Y-88000000D03*
D13*
X50500000Y-88000000D03*
%TD*%
D10*
%TO.C,J13*%
X190000000Y-42000000D03*
D11*
X187460000Y-42000000D03*
X184920000Y-42000000D03*
%TD*%
D10*
%TO.C,J16*%
X190000000Y-87000000D03*
D11*
X187460000Y-87000000D03*
X184920000Y-87000000D03*
X182380000Y-87000000D03*
%TD*%
D10*
%TO.C,J8*%
X150000000Y-78000000D03*
D11*
X147460000Y-78000000D03*
%TD*%
D10*
%TO.C,J5*%
X150000000Y-36000000D03*
D11*
X147460000Y-36000000D03*
%TD*%
D10*
%TO.C,J3*%
X150000000Y-12000000D03*
D11*
X147460000Y-12000000D03*
%TD*%
D10*
%TO.C,J12*%
X190000000Y-27000000D03*
D11*
X187460000Y-27000000D03*
X184920000Y-27000000D03*
X182380000Y-27000000D03*
%TD*%
D10*
%TO.C,J15*%
X190000000Y-72000000D03*
D11*
X187460000Y-72000000D03*
X184920000Y-72000000D03*
%TD*%
D10*
%TO.C,J9*%
X146000000Y-90000000D03*
D11*
X143460000Y-90000000D03*
%TD*%
D10*
%TO.C,J18*%
X140000000Y-110000000D03*
D11*
X140000000Y-112540000D03*
X140000000Y-115080000D03*
%TD*%
D10*
%TO.C,J7*%
X150000000Y-65000000D03*
D11*
X147460000Y-65000000D03*
%TD*%
D12*
%TO.C,C3*%
X68000000Y-88000000D03*
D13*
X70500000Y-88000000D03*
%TD*%
D10*
%TO.C,J14*%
X190000000Y-57000000D03*
D11*
X187460000Y-57000000D03*
X184920000Y-57000000D03*
X182380000Y-57000000D03*
%TD*%
D10*
%TO.C,J11*%
X190000000Y-12000000D03*
D11*
X187460000Y-12000000D03*
X184920000Y-12000000D03*
X182380000Y-12000000D03*
%TD*%
D14*
X0Y0D02*
X200000000Y0D01*
X0Y-120000000D02*
X0Y0D01*
X200000000Y0D02*
X200000000Y-120000000D01*
X200000000Y-120000000D02*
X0Y-120000000D01*
M02*
