%TF.GenerationSoftware,KiCad,Pcbnew,9.0.9-9.0.9~ubuntu24.04.1*%
%TF.CreationDate,2026-07-06T21:25:06+08:00*%
%TF.ProjectId,HMP115-Clone-v01,484d5031-3135-42d4-936c-6f6e652d7630,rev?*%
%TF.SameCoordinates,Original*%
%TF.FileFunction,Copper,L2,Bot*%
%TF.FilePolarity,Positive*%
%FSLAX46Y46*%
G04 Gerber Fmt 4.6, Leading zero omitted, Abs format (unit mm)*
G04 Created by KiCad (PCBNEW 9.0.9-9.0.9~ubuntu24.04.1) date 2026-07-06 21:25:06*
%MOMM*%
%LPD*%
G01*
G04 APERTURE LIST*
G04 Aperture macros list*
%AMRoundRect*
0 Rectangle with rounded corners*
0 $1 Rounding radius*
0 $2 $3 $4 $5 $6 $7 $8 $9 X,Y pos of 4 corners*
0 Add a 4 corners polygon primitive as box body*
4,1,4,$2,$3,$4,$5,$6,$7,$8,$9,$2,$3,0*
0 Add four circle primitives for the rounded corners*
1,1,$1+$1,$2,$3*
1,1,$1+$1,$4,$5*
1,1,$1+$1,$6,$7*
1,1,$1+$1,$8,$9*
0 Add four rect primitives between the rounded corners*
20,1,$1+$1,$2,$3,$4,$5,0*
20,1,$1+$1,$4,$5,$6,$7,0*
20,1,$1+$1,$6,$7,$8,$9,0*
20,1,$1+$1,$8,$9,$2,$3,0*%
G04 Aperture macros list end*
%TA.AperFunction,ComponentPad*%
%ADD10R,1.700000X1.700000*%
%TD*%
%TA.AperFunction,ComponentPad*%
%ADD11C,1.700000*%
%TD*%
%TA.AperFunction,ComponentPad*%
%ADD12RoundRect,0.250000X1.050000X-1.050000X1.050000X1.050000X-1.050000X1.050000X-1.050000X-1.050000X0*%
%TD*%
%TA.AperFunction,ComponentPad*%
%ADD13C,2.600000*%
%TD*%
%TA.AperFunction,ViaPad*%
%ADD14C,0.600000*%
%TD*%
%TA.AperFunction,Conductor*%
%ADD15C,0.200000*%
%TD*%
G04 APERTURE END LIST*
D10*
%TO.P,J2,1*%
%TO.N,3V3*%
X44000000Y-18000000D03*
D11*
%TO.P,J2,2*%
%TO.N,SWDIO*%
X46540000Y-18000000D03*
%TO.P,J2,3*%
%TO.N,SWCLK*%
X49080000Y-18000000D03*
%TO.P,J2,4*%
%TO.N,NRST*%
X51620000Y-18000000D03*
%TO.P,J2,5*%
%TO.N,GND*%
X54160000Y-18000000D03*
%TD*%
D12*
%TO.P,J1,1*%
%TO.N,VIN_5_28V*%
X76000000Y-18960000D03*
D13*
%TO.P,J1,2*%
%TO.N,GND*%
X76000000Y-13880000D03*
%TO.P,J1,3*%
%TO.N,RS485_A*%
X76000000Y-8800000D03*
%TO.P,J1,4*%
%TO.N,RS485_B*%
X76000000Y-3720000D03*
%TD*%
D14*
%TO.N,RS485_DI*%
X40499700Y-9374900D03*
X46325500Y-7296300D03*
%TO.N,SWCLK*%
X30809100Y-12625100D03*
%TO.N,RS485_B*%
X42554700Y-10191100D03*
%TO.N,SHT_ADDR*%
X12084700Y-11250200D03*
X13732700Y-16000000D03*
%TO.N,I2C_SCL*%
X14085800Y-9423800D03*
X19758000Y-8933000D03*
%TO.N,GND*%
X39177000Y-11910000D03*
X50798000Y-9245000D03*
%TO.N,NRST*%
X37794400Y-11405000D03*
%TO.N,SWDIO*%
X32546500Y-11975100D03*
%TO.N,RS485_A*%
X55437100Y-4262100D03*
X49253200Y-10030600D03*
%TD*%
D15*
%TO.N,RS485_DI*%
X46325500Y-7296300D02*
X42805500Y-10816300D01*
X42805500Y-10816300D02*
X41941100Y-10816300D01*
X41941100Y-10816300D02*
X40499700Y-9374900D01*
%TO.N,SWCLK*%
X47888200Y-19191800D02*
X37375800Y-19191800D01*
X37375800Y-19191800D02*
X30809100Y-12625100D01*
X49080000Y-18000000D02*
X47888200Y-19191800D01*
%TO.N,RS485_B*%
X75881900Y-3601900D02*
X49143900Y-3601900D01*
X76000000Y-3720000D02*
X75881900Y-3601900D01*
X49143900Y-3601900D02*
X42554700Y-10191100D01*
%TO.N,SHT_ADDR*%
X12084700Y-14352000D02*
X13732700Y-16000000D01*
X12084700Y-11250200D02*
X12084700Y-14352000D01*
%TO.N,I2C_SCL*%
X14085800Y-9423800D02*
X19267200Y-9423800D01*
X19267200Y-9423800D02*
X19758000Y-8933000D01*
%TO.N,GND*%
X54160000Y-16365700D02*
X49704300Y-11910000D01*
X76000000Y-13880000D02*
X71880000Y-18000000D01*
X49704300Y-11910000D02*
X50798000Y-10816300D01*
X50798000Y-10816300D02*
X50798000Y-9245000D01*
X54160000Y-18000000D02*
X54160000Y-16365700D01*
X71880000Y-18000000D02*
X54160000Y-18000000D01*
X39177000Y-11910000D02*
X49704300Y-11910000D01*
%TO.N,NRST*%
X40147700Y-13758300D02*
X37794400Y-11405000D01*
X51620000Y-18000000D02*
X47378300Y-13758300D01*
X47378300Y-13758300D02*
X40147700Y-13758300D01*
%TO.N,SWDIO*%
X35039800Y-14468400D02*
X32546500Y-11975100D01*
X46540000Y-18000000D02*
X43008400Y-14468400D01*
X43008400Y-14468400D02*
X35039800Y-14468400D01*
%TO.N,RS485_A*%
X54861500Y-4262100D02*
X49253200Y-9870400D01*
X59975000Y-8800000D02*
X55437100Y-4262100D01*
X55437100Y-4262100D02*
X54861500Y-4262100D01*
X49253200Y-9870400D02*
X49253200Y-10030600D01*
X76000000Y-8800000D02*
X59975000Y-8800000D01*
%TD*%
M02*
