%TF.GenerationSoftware,KiCad,Pcbnew,9.0.9-9.0.9~ubuntu24.04.1*%
%TF.CreationDate,2026-07-06T21:25:06+08:00*%
%TF.ProjectId,HMP115-Clone-v01,484d5031-3135-42d4-936c-6f6e652d7630,rev?*%
%TF.SameCoordinates,Original*%
%TF.FileFunction,Copper,L1,Top*%
%TF.FilePolarity,Positive*%
%FSLAX46Y46*%
G04 Gerber Fmt 4.6, Leading zero omitted, Abs format (unit mm)*
G04 Created by KiCad (PCBNEW 9.0.9-9.0.9~ubuntu24.04.1) date 2026-07-06 21:25:06*
%MOMM*%
%LPD*%
G01*
G04 APERTURE LIST*
G04 Aperture macros list*
%AMRoundRect*
0 Rectangle with rounded corners*
0 $1 Rounding radius*
0 $2 $3 $4 $5 $6 $7 $8 $9 X,Y pos of 4 corners*
0 Add a 4 corners polygon primitive as box body*
4,1,4,$2,$3,$4,$5,$6,$7,$8,$9,$2,$3,0*
0 Add four circle primitives for the rounded corners*
1,1,$1+$1,$2,$3*
1,1,$1+$1,$4,$5*
1,1,$1+$1,$6,$7*
1,1,$1+$1,$8,$9*
0 Add four rect primitives between the rounded corners*
20,1,$1+$1,$2,$3,$4,$5,0*
20,1,$1+$1,$4,$5,$6,$7,0*
20,1,$1+$1,$6,$7,$8,$9,0*
20,1,$1+$1,$8,$9,$2,$3,0*%
G04 Aperture macros list end*
%TA.AperFunction,SMDPad,CuDef*%
%ADD10RoundRect,0.218750X-0.218750X-0.256250X0.218750X-0.256250X0.218750X0.256250X-0.218750X0.256250X0*%
%TD*%
%TA.AperFunction,SMDPad,CuDef*%
%ADD11RoundRect,0.225000X-0.225000X-0.250000X0.225000X-0.250000X0.225000X0.250000X-0.225000X0.250000X0*%
%TD*%
%TA.AperFunction,SMDPad,CuDef*%
%ADD12RoundRect,0.200000X-0.200000X-0.275000X0.200000X-0.275000X0.200000X0.275000X-0.200000X0.275000X0*%
%TD*%
%TA.AperFunction,SMDPad,CuDef*%
%ADD13O,1.742000X0.364000*%
%TD*%
%TA.AperFunction,SMDPad,CuDef*%
%ADD14RoundRect,0.275000X0.275000X-0.975000X0.275000X0.975000X-0.275000X0.975000X-0.275000X-0.975000X0*%
%TD*%
%TA.AperFunction,SMDPad,CuDef*%
%ADD15RoundRect,0.585000X1.215000X-0.585000X1.215000X0.585000X-1.215000X0.585000X-1.215000X-0.585000X0*%
%TD*%
%TA.AperFunction,ComponentPad*%
%ADD16R,1.700000X1.700000*%
%TD*%
%TA.AperFunction,ComponentPad*%
%ADD17C,1.700000*%
%TD*%
%TA.AperFunction,SMDPad,CuDef*%
%ADD18O,1.865000X0.630000*%
%TD*%
%TA.AperFunction,ComponentPad*%
%ADD19RoundRect,0.250000X1.050000X-1.050000X1.050000X1.050000X-1.050000X1.050000X-1.050000X-1.050000X0*%
%TD*%
%TA.AperFunction,ComponentPad*%
%ADD20C,2.600000*%
%TD*%
%TA.AperFunction,SMDPad,CuDef*%
%ADD21RoundRect,0.062500X0.287500X-0.062500X0.287500X0.062500X-0.287500X0.062500X-0.287500X-0.062500X0*%
%TD*%
%TA.AperFunction,SMDPad,CuDef*%
%ADD22RoundRect,0.275000X0.275000X-0.625000X0.275000X0.625000X-0.275000X0.625000X-0.275000X-0.625000X0*%
%TD*%
%TA.AperFunction,ViaPad*%
%ADD23C,0.600000*%
%TD*%
%TA.AperFunction,Conductor*%
%ADD24C,0.200000*%
%TD*%
G04 APERTURE END LIST*
D10*
%TO.P,D1,1*%
%TO.N,GND*%
X41212500Y-7000000D03*
%TO.P,D1,2*%
%TO.N,LED_DRV*%
X42787500Y-7000000D03*
%TD*%
D11*
%TO.P,C5,1*%
%TO.N,3V3*%
X49225000Y-3000000D03*
%TO.P,C5,2*%
%TO.N,GND*%
X50775000Y-3000000D03*
%TD*%
%TO.P,C1,1*%
%TO.N,VIN_5_28V*%
X56225000Y-15000000D03*
%TO.P,C1,2*%
%TO.N,GND*%
X57775000Y-15000000D03*
%TD*%
D12*
%TO.P,R6,1*%
%TO.N,3V3*%
X38175000Y-5000000D03*
%TO.P,R6,2*%
%TO.N,LED_DRV*%
X39825000Y-5000000D03*
%TD*%
D13*
%TO.P,U1,1*%
%TO.N,N/C*%
X34871000Y-13925100D03*
%TO.P,U1,2*%
X34871000Y-13275100D03*
%TO.P,U1,3*%
%TO.N,3V3*%
X34871000Y-12625100D03*
%TO.P,U1,4*%
%TO.N,GND*%
X34871000Y-11975100D03*
%TO.P,U1,5*%
%TO.N,NRST*%
X34871000Y-11324900D03*
%TO.P,U1,6*%
%TO.N,N/C*%
X34871000Y-10674900D03*
%TO.P,U1,7*%
X34871000Y-10024900D03*
%TO.P,U1,8*%
%TO.N,RS485_DI*%
X34871000Y-9374900D03*
%TO.P,U1,9*%
%TO.N,RS485_RO*%
X34871000Y-8724900D03*
%TO.P,U1,10*%
%TO.N,RS485_DIR*%
X34871000Y-8074900D03*
%TO.P,U1,11*%
%TO.N,N/C*%
X29129000Y-8074900D03*
%TO.P,U1,12*%
X29129000Y-8724900D03*
%TO.P,U1,13*%
X29129000Y-9374900D03*
%TO.P,U1,14*%
%TO.N,LED_DRV*%
X29129000Y-10024900D03*
%TO.P,U1,15*%
%TO.N,N/C*%
X29129000Y-10674900D03*
%TO.P,U1,16*%
X29129000Y-11324900D03*
%TO.P,U1,17*%
%TO.N,SWDIO*%
X29129000Y-11975100D03*
%TO.P,U1,18*%
%TO.N,SWCLK*%
X29129000Y-12625100D03*
%TO.P,U1,19*%
%TO.N,I2C_SCL*%
X29129000Y-13275100D03*
%TO.P,U1,20*%
%TO.N,I2C_SDA*%
X29129000Y-13925100D03*
%TD*%
D12*
%TO.P,R2,1*%
%TO.N,3V3*%
X16175000Y-7000000D03*
%TO.P,R2,2*%
%TO.N,I2C_SCL*%
X17825000Y-7000000D03*
%TD*%
%TO.P,R1,1*%
%TO.N,3V3*%
X16175000Y-5000000D03*
%TO.P,R1,2*%
%TO.N,I2C_SDA*%
X17825000Y-5000000D03*
%TD*%
%TO.P,R5,1*%
%TO.N,SHT_ADDR*%
X15175000Y-16000000D03*
%TO.P,R5,2*%
%TO.N,GND*%
X16825000Y-16000000D03*
%TD*%
D14*
%TO.P,U4,1*%
%TO.N,GND*%
X66300000Y-7070000D03*
%TO.P,U4,2*%
%TO.N,3V3*%
X64000000Y-7070000D03*
%TO.P,U4,3*%
%TO.N,VIN_5_28V*%
X61700000Y-7070000D03*
D15*
%TO.P,U4,4*%
%TO.N,N/C*%
X64000000Y-13010000D03*
%TD*%
D16*
%TO.P,J2,1*%
%TO.N,3V3*%
X44000000Y-18000000D03*
D17*
%TO.P,J2,2*%
%TO.N,SWDIO*%
X46540000Y-18000000D03*
%TO.P,J2,3*%
%TO.N,SWCLK*%
X49080000Y-18000000D03*
%TO.P,J2,4*%
%TO.N,NRST*%
X51620000Y-18000000D03*
%TO.P,J2,5*%
%TO.N,GND*%
X54160000Y-18000000D03*
%TD*%
D12*
%TO.P,R3,1*%
%TO.N,RS485_A*%
X56175000Y-5000000D03*
%TO.P,R3,2*%
%TO.N,RS485_B*%
X57825000Y-5000000D03*
%TD*%
D11*
%TO.P,C3,1*%
%TO.N,3V3*%
X31225000Y-3000000D03*
%TO.P,C3,2*%
%TO.N,GND*%
X32775000Y-3000000D03*
%TD*%
D18*
%TO.P,U3,1*%
%TO.N,RS485_RO*%
X52682500Y-12905000D03*
%TO.P,U3,2*%
%TO.N,RS485_DIR*%
X52682500Y-11635000D03*
%TO.P,U3,3*%
X52682500Y-10365000D03*
%TO.P,U3,4*%
%TO.N,RS485_DI*%
X52682500Y-9095000D03*
%TO.P,U3,5*%
%TO.N,GND*%
X47317500Y-9095000D03*
%TO.P,U3,6*%
%TO.N,RS485_A*%
X47317500Y-10365000D03*
%TO.P,U3,7*%
%TO.N,RS485_B*%
X47317500Y-11635000D03*
%TO.P,U3,8*%
%TO.N,3V3*%
X47317500Y-12905000D03*
%TD*%
D19*
%TO.P,J1,1*%
%TO.N,VIN_5_28V*%
X76000000Y-18960000D03*
D20*
%TO.P,J1,2*%
%TO.N,GND*%
X76000000Y-13880000D03*
%TO.P,J1,3*%
%TO.N,RS485_A*%
X76000000Y-8800000D03*
%TO.P,J1,4*%
%TO.N,RS485_B*%
X76000000Y-3720000D03*
%TD*%
D12*
%TO.P,R7,1*%
%TO.N,3V3*%
X16175000Y-18000000D03*
%TO.P,R7,2*%
%TO.N,SHT_RESET*%
X17825000Y-18000000D03*
%TD*%
D21*
%TO.P,U2,1*%
%TO.N,I2C_SDA*%
X11200000Y-11750100D03*
%TO.P,U2,2*%
%TO.N,SHT_ADDR*%
X11200000Y-11250200D03*
%TO.P,U2,3*%
%TO.N,N/C*%
X11200000Y-10750100D03*
%TO.P,U2,4*%
%TO.N,I2C_SCL*%
X11200000Y-10249900D03*
%TO.P,U2,5*%
%TO.N,3V3*%
X8800000Y-10249900D03*
%TO.P,U2,6*%
%TO.N,SHT_RESET*%
X8800000Y-10750100D03*
%TO.P,U2,7*%
%TO.N,N/C*%
X8800000Y-11250200D03*
%TO.P,U2,8*%
%TO.N,GND*%
X8800000Y-11750100D03*
D22*
%TO.P,U2,9*%
%TO.N,N/C*%
X10000100Y-11000000D03*
%TD*%
D12*
%TO.P,R4,1*%
%TO.N,RS485_DIR*%
X42175000Y-5000000D03*
%TO.P,R4,2*%
%TO.N,GND*%
X43825000Y-5000000D03*
%TD*%
D11*
%TO.P,C2,1*%
%TO.N,3V3*%
X61225000Y-20000000D03*
%TO.P,C2,2*%
%TO.N,GND*%
X62775000Y-20000000D03*
%TD*%
%TO.P,C4,1*%
%TO.N,3V3*%
X9225000Y-4000000D03*
%TO.P,C4,2*%
%TO.N,GND*%
X10775000Y-4000000D03*
%TD*%
D23*
%TO.N,RS485_DI*%
X40499700Y-9374900D03*
X46325500Y-7296300D03*
%TO.N,SWCLK*%
X30809100Y-12625100D03*
%TO.N,RS485_B*%
X42554700Y-10191100D03*
%TO.N,SHT_ADDR*%
X12084700Y-11250200D03*
X13732700Y-16000000D03*
%TO.N,I2C_SCL*%
X14085800Y-9423800D03*
X19758000Y-8933000D03*
%TO.N,GND*%
X39177000Y-11910000D03*
X50798000Y-9245000D03*
%TO.N,NRST*%
X37794400Y-11405000D03*
%TO.N,SWDIO*%
X32546500Y-11975100D03*
%TO.N,RS485_A*%
X55437100Y-4262100D03*
X49253200Y-10030600D03*
%TD*%
D24*
%TO.N,RS485_RO*%
X52682500Y-12905000D02*
X51448300Y-12905000D01*
X50831600Y-12288300D02*
X43797000Y-12288300D01*
X43797000Y-12288300D02*
X41846900Y-10338200D01*
X41846900Y-10338200D02*
X41846900Y-9871200D01*
X41846900Y-9871200D02*
X40700600Y-8724900D01*
X40700600Y-8724900D02*
X34871000Y-8724900D01*
X51448300Y-12905000D02*
X50831600Y-12288300D01*
%TO.N,SHT_RESET*%
X17825000Y-18000000D02*
X16623500Y-16798500D01*
X12915200Y-16798500D02*
X8089300Y-11972600D01*
X8089300Y-11972600D02*
X8089300Y-11016600D01*
X8355800Y-10750100D02*
X8800000Y-10750100D01*
X8089300Y-11016600D02*
X8355800Y-10750100D01*
X16623500Y-16798500D02*
X12915200Y-16798500D01*
%TO.N,RS485_DI*%
X46325500Y-7296300D02*
X49777400Y-7296300D01*
X34871000Y-9374900D02*
X40499700Y-9374900D01*
X49777400Y-7296300D02*
X51448300Y-8967200D01*
X52682500Y-9095000D02*
X51448300Y-9095000D01*
X51448300Y-8967200D02*
X51448300Y-9095000D01*
%TO.N,3V3*%
X49225000Y-3000000D02*
X40175000Y-3000000D01*
X47317500Y-12905000D02*
X48551700Y-12905000D01*
X44559900Y-14428400D02*
X42848300Y-14428400D01*
X37733700Y-14428400D02*
X36780500Y-13475100D01*
X43822600Y-20000000D02*
X61225000Y-20000000D01*
X16175000Y-7000000D02*
X12049900Y-7000000D01*
X8800000Y-10249900D02*
X8228900Y-10249900D01*
X42848300Y-18000000D02*
X42848300Y-19025700D01*
X49172300Y-13525600D02*
X48551700Y-12905000D01*
X9225000Y-4000000D02*
X10225000Y-5000000D01*
X7645300Y-10833500D02*
X7645300Y-12122800D01*
X54465800Y-12729100D02*
X53669300Y-13525600D01*
X36043700Y-12738400D02*
X36780500Y-13475100D01*
X31225000Y-3000000D02*
X33225000Y-5000000D01*
X33225000Y-5000000D02*
X38175000Y-5000000D01*
X42848300Y-14428400D02*
X37733700Y-14428400D01*
X34871000Y-12625100D02*
X36043700Y-12625100D01*
X31463600Y-18792000D02*
X36780500Y-13475100D01*
X7645300Y-12122800D02*
X13522500Y-18000000D01*
X62439700Y-5509700D02*
X61184900Y-5509700D01*
X36043700Y-12625100D02*
X36043700Y-12738400D01*
X16175000Y-5000000D02*
X16175000Y-7000000D01*
X44000000Y-18000000D02*
X42848300Y-18000000D01*
X47317500Y-12905000D02*
X46083300Y-12905000D01*
X8228900Y-10249900D02*
X7645300Y-10833500D01*
X42848300Y-19025700D02*
X43822600Y-20000000D01*
X40175000Y-3000000D02*
X38175000Y-5000000D01*
X12049900Y-7000000D02*
X8800000Y-10249900D01*
X64000000Y-7070000D02*
X62439700Y-5509700D01*
X31225000Y-3000000D02*
X18175000Y-3000000D01*
X53669300Y-13525600D02*
X49172300Y-13525600D01*
X18175000Y-3000000D02*
X16175000Y-5000000D01*
X13522500Y-18000000D02*
X16175000Y-18000000D01*
X46083300Y-12905000D02*
X44559900Y-14428400D01*
X16175000Y-18000000D02*
X16967000Y-18792000D01*
X61184900Y-5509700D02*
X54465800Y-12228800D01*
X10225000Y-5000000D02*
X16175000Y-5000000D01*
X42848300Y-14428400D02*
X42848300Y-18000000D01*
X54465800Y-12228800D02*
X54465800Y-12729100D01*
X16967000Y-18792000D02*
X31463600Y-18792000D01*
%TO.N,SWCLK*%
X30809100Y-12625100D02*
X29129000Y-12625100D01*
%TO.N,RS485_DIR*%
X41951300Y-9019500D02*
X39949700Y-7017900D01*
X50814800Y-10998500D02*
X51448300Y-10365000D01*
X50814800Y-10998500D02*
X44355300Y-10998500D01*
X34871000Y-8074900D02*
X38892700Y-8074900D01*
X51448300Y-11632000D02*
X51448300Y-11635000D01*
X39949700Y-7017900D02*
X41967600Y-5000000D01*
X42376300Y-9019500D02*
X41951300Y-9019500D01*
X52682500Y-10365000D02*
X51448300Y-10365000D01*
X52682500Y-11635000D02*
X51448300Y-11635000D01*
X38892700Y-8074900D02*
X39949700Y-7017900D01*
X44355300Y-10998500D02*
X42376300Y-9019500D01*
X41967600Y-5000000D02*
X42175000Y-5000000D01*
X50814800Y-10998500D02*
X51448300Y-11632000D01*
%TO.N,RS485_B*%
X74720000Y-5000000D02*
X57825000Y-5000000D01*
X76000000Y-3720000D02*
X74720000Y-5000000D01*
X47317500Y-11635000D02*
X43998600Y-11635000D01*
X43998600Y-11635000D02*
X42554700Y-10191100D01*
%TO.N,SHT_ADDR*%
X15175000Y-16000000D02*
X13732700Y-16000000D01*
X11200000Y-11250200D02*
X12084700Y-11250200D01*
%TO.N,I2C_SCL*%
X19758000Y-8933000D02*
X17825000Y-7000000D01*
X11200000Y-10249900D02*
X12026100Y-9423800D01*
X29129000Y-13275100D02*
X24100100Y-13275100D01*
X24100100Y-13275100D02*
X19758000Y-8933000D01*
X12026100Y-9423800D02*
X14085800Y-9423800D01*
%TO.N,GND*%
X8800000Y-11750100D02*
X11957100Y-14907200D01*
X50775000Y-3000000D02*
X48775000Y-5000000D01*
X29673400Y-16000000D02*
X33698300Y-11975100D01*
X48775000Y-5000000D02*
X43825000Y-5000000D01*
X36075300Y-12006700D02*
X39080300Y-12006700D01*
X36043700Y-11975100D02*
X36075300Y-12006700D01*
X49997400Y-2222400D02*
X33552600Y-2222400D01*
X31988800Y-2213800D02*
X32775000Y-3000000D01*
X15732200Y-14907200D02*
X16825000Y-16000000D01*
X44773900Y-7785600D02*
X46083300Y-9095000D01*
X73110000Y-13880000D02*
X76000000Y-13880000D01*
X43825000Y-7785600D02*
X44773900Y-7785600D01*
X10775000Y-4000000D02*
X12561200Y-2213800D01*
X43825000Y-5000000D02*
X43825000Y-7785600D01*
X34871000Y-11975100D02*
X33698300Y-11975100D01*
X41212500Y-7000000D02*
X41998100Y-7785600D01*
X12561200Y-2213800D02*
X31988800Y-2213800D01*
X39080300Y-12006700D02*
X39177000Y-11910000D01*
X34871000Y-11975100D02*
X36043700Y-11975100D01*
X16825000Y-16000000D02*
X29673400Y-16000000D01*
X47317500Y-9095000D02*
X48551700Y-9095000D01*
X33552600Y-2222400D02*
X32775000Y-3000000D01*
X76000000Y-13880000D02*
X74880000Y-15000000D01*
X66300000Y-7070000D02*
X73110000Y-13880000D01*
X50798000Y-9245000D02*
X48701700Y-9245000D01*
X60775000Y-18000000D02*
X54160000Y-18000000D01*
X47317500Y-9095000D02*
X46083300Y-9095000D01*
X11957100Y-14907200D02*
X15732200Y-14907200D01*
X74880000Y-15000000D02*
X57775000Y-15000000D01*
X62775000Y-20000000D02*
X60775000Y-18000000D01*
X50775000Y-3000000D02*
X49997400Y-2222400D01*
X48701700Y-9245000D02*
X48551700Y-9095000D01*
X41998100Y-7785600D02*
X43825000Y-7785600D01*
%TO.N,NRST*%
X36123800Y-11405000D02*
X37794400Y-11405000D01*
X34871000Y-11324900D02*
X36043700Y-11324900D01*
X36043700Y-11324900D02*
X36123800Y-11405000D01*
%TO.N,I2C_SDA*%
X11200000Y-11750100D02*
X11376600Y-11926700D01*
X16976300Y-7394700D02*
X16976300Y-5848700D01*
X23506700Y-13925100D02*
X29129000Y-13925100D01*
X11376600Y-11926700D02*
X12444300Y-11926700D01*
X16976300Y-5848700D02*
X17825000Y-5000000D01*
X12444300Y-11926700D02*
X16976300Y-7394700D01*
X16976300Y-7394700D02*
X23506700Y-13925100D01*
%TO.N,SWDIO*%
X29129000Y-11975100D02*
X32546500Y-11975100D01*
%TO.N,RS485_A*%
X48886100Y-10030600D02*
X48551700Y-10365000D01*
X47317500Y-10365000D02*
X48551700Y-10365000D01*
X49253200Y-10030600D02*
X48886100Y-10030600D01*
X55437100Y-4262100D02*
X56175000Y-5000000D01*
%TO.N,LED_DRV*%
X38913100Y-5911900D02*
X35610400Y-5911900D01*
X42893700Y-4472400D02*
X42623500Y-4202200D01*
X40622800Y-4202200D02*
X39825000Y-5000000D01*
X42623500Y-4202200D02*
X40622800Y-4202200D01*
X39825000Y-5000000D02*
X38913100Y-5911900D01*
X31497400Y-10024900D02*
X29129000Y-10024900D01*
X35610400Y-5911900D02*
X31497400Y-10024900D01*
X42893700Y-6893800D02*
X42893700Y-4472400D01*
X42787500Y-7000000D02*
X42893700Y-6893800D01*
%TO.N,VIN_5_28V*%
X56225000Y-15000000D02*
X56225000Y-12545000D01*
X56225000Y-15000000D02*
X57081800Y-15856800D01*
X72896800Y-15856800D02*
X76000000Y-18960000D01*
X57081800Y-15856800D02*
X72896800Y-15856800D01*
X56225000Y-12545000D02*
X61700000Y-7070000D01*
%TD*%
M02*
