M48
; DRILL file {KiCad 9.0.9-9.0.9~ubuntu24.04.1} date 2026-07-05T15:17:36+0800
; FORMAT={-:-/ absolute / metric / decimal}
; #@! TF.CreationDate,2026-07-05T15:17:36+08:00
; #@! TF.GenerationSoftware,Kicad,Pcbnew,9.0.9-9.0.9~ubuntu24.04.1
; #@! TF.FileFunction,Plated,1,2,PTH
FMAT,2
METRIC
; #@! TA.AperFunction,Plated,PTH,ComponentDrill
T1C0.200
; #@! TA.AperFunction,Plated,PTH,ViaDrill
T2C0.300
; #@! TA.AperFunction,Plated,PTH,ComponentDrill
T3C0.800
; #@! TA.AperFunction,Plated,PTH,ComponentDrill
T4C1.000
%
G90
G05
T1
X34.3Y-73.8
X34.3Y-75.0
X34.3Y-76.2
X35.7Y-73.8
X35.7Y-75.0
X35.7Y-76.2
X72.795Y-43.328
X72.795Y-44.852
X73.557Y-42.565
X73.557Y-44.09
X73.557Y-45.615
X74.32Y-43.328
X74.32Y-44.852
X75.082Y-42.565
X75.082Y-44.09
X75.082Y-45.615
X75.845Y-43.328
X75.845Y-44.852
T2
X20.5Y-36.27
X34.629Y-32.888
X37.51Y-12.074
X43.227Y-12.825
X46.216Y-77.589
X47.061Y-32.317
X47.306Y-13.615
X47.398Y-49.45
X47.511Y-30.659
X50.722Y-48.18
X52.791Y-38.656
X64.075Y-39.475
X64.776Y-10.473
X64.895Y-74.657
X67.504Y-50.638
X67.522Y-40.56
X67.522Y-41.688
X67.522Y-45.365
X67.525Y-38.02
X85.003Y-51.99
X85.061Y-83.453
X92.703Y-43.1
X96.774Y-39.292
X97.355Y-37.008
X110.99Y-20.822
X114.486Y-18.953
X118.18Y-50.72
X118.849Y-63.697
X122.75Y-87.922
X125.067Y-20.057
X125.575Y-59.913
X125.709Y-27.988
X128.442Y-27.223
X129.638Y-28.0
X132.657Y-54.348
X132.786Y-36.589
X138.102Y-72.441
X138.225Y-45.64
X148.072Y-68.973
X151.292Y-57.025
X153.604Y-86.45
X157.879Y-87.081
X158.503Y-39.123
X183.668Y-83.453
X186.242Y-54.134
T3
X18.0Y-75.0
X20.5Y-75.0
X48.0Y-88.0
X50.5Y-88.0
X68.0Y-88.0
X70.5Y-88.0
T4
X8.0Y-15.0
X8.0Y-35.0
X10.54Y-15.0
X10.54Y-35.0
X112.0Y-110.0
X112.0Y-112.54
X112.0Y-115.08
X112.0Y-117.62
X140.0Y-110.0
X140.0Y-112.54
X140.0Y-115.08
X143.46Y-90.0
X143.46Y-95.0
X146.0Y-90.0
X146.0Y-95.0
X147.46Y-12.0
X147.46Y-24.0
X147.46Y-36.0
X147.46Y-48.0
X147.46Y-65.0
X147.46Y-78.0
X150.0Y-12.0
X150.0Y-24.0
X150.0Y-36.0
X150.0Y-48.0
X150.0Y-65.0
X150.0Y-78.0
X168.0Y-110.0
X168.0Y-112.54
X168.0Y-115.08
X182.38Y-12.0
X182.38Y-27.0
X182.38Y-57.0
X182.38Y-87.0
X184.92Y-12.0
X184.92Y-27.0
X184.92Y-42.0
X184.92Y-57.0
X184.92Y-72.0
X184.92Y-87.0
X187.46Y-12.0
X187.46Y-27.0
X187.46Y-42.0
X187.46Y-57.0
X187.46Y-72.0
X187.46Y-87.0
X190.0Y-12.0
X190.0Y-27.0
X190.0Y-42.0
X190.0Y-57.0
X190.0Y-72.0
X190.0Y-87.0
M30
