%TF.GenerationSoftware,KiCad,Pcbnew,9.0.9-9.0.9~ubuntu24.04.1*%
%TF.CreationDate,2026-07-06T20:21:10+08:00*%
%TF.ProjectId,HMP115-Interface-v02,484d5031-3135-42d4-996e-746572666163,rev?*%
%TF.SameCoordinates,Original*%
%TF.FileFunction,Legend,Top*%
%TF.FilePolarity,Positive*%
%FSLAX46Y46*%
G04 Gerber Fmt 4.6, Leading zero omitted, Abs format (unit mm)*
G04 Created by KiCad (PCBNEW 9.0.9-9.0.9~ubuntu24.04.1) date 2026-07-06 20:21:10*
%MOMM*%
%LPD*%
G01*
G04 APERTURE LIST*
%ADD10C,0.120000*%
%ADD11C,0.150000*%
G04 APERTURE END LIST*
D10*
X5247619Y-7536987D02*
X5247619Y-8144130D01*
X5247619Y-8144130D02*
X5207142Y-8265558D01*
X5207142Y-8265558D02*
X5126190Y-8346511D01*
X5126190Y-8346511D02*
X5004761Y-8386987D01*
X5004761Y-8386987D02*
X4923809Y-8386987D01*
X6097619Y-8386987D02*
X5611904Y-8386987D01*
X5854761Y-8386987D02*
X5854761Y-7536987D01*
X5854761Y-7536987D02*
X5773809Y-7658415D01*
X5773809Y-7658415D02*
X5692857Y-7739368D01*
X5692857Y-7739368D02*
X5611904Y-7779844D01*
X7554762Y-8386987D02*
X7069047Y-8386987D01*
X7311904Y-8386987D02*
X7311904Y-7536987D01*
X7311904Y-7536987D02*
X7230952Y-7658415D01*
X7230952Y-7658415D02*
X7150000Y-7739368D01*
X7150000Y-7739368D02*
X7069047Y-7779844D01*
X7878571Y-7617939D02*
X7919047Y-7577463D01*
X7919047Y-7577463D02*
X8000000Y-7536987D01*
X8000000Y-7536987D02*
X8202381Y-7536987D01*
X8202381Y-7536987D02*
X8283333Y-7577463D01*
X8283333Y-7577463D02*
X8323809Y-7617939D01*
X8323809Y-7617939D02*
X8364286Y-7698891D01*
X8364286Y-7698891D02*
X8364286Y-7779844D01*
X8364286Y-7779844D02*
X8323809Y-7901272D01*
X8323809Y-7901272D02*
X7838095Y-8386987D01*
X7838095Y-8386987D02*
X8364286Y-8386987D01*
X8607143Y-7536987D02*
X8890476Y-8386987D01*
X8890476Y-8386987D02*
X9173810Y-7536987D01*
X10104761Y-8386987D02*
X10104761Y-7536987D01*
X10509523Y-8386987D02*
X10509523Y-7536987D01*
X10509523Y-7536987D02*
X10995238Y-8386987D01*
X10995238Y-8386987D02*
X10995238Y-7536987D01*
X2454761Y-26536987D02*
X2454761Y-27144130D01*
X2454761Y-27144130D02*
X2414284Y-27265558D01*
X2414284Y-27265558D02*
X2333332Y-27346511D01*
X2333332Y-27346511D02*
X2211903Y-27386987D01*
X2211903Y-27386987D02*
X2130951Y-27386987D01*
X2819046Y-26617939D02*
X2859522Y-26577463D01*
X2859522Y-26577463D02*
X2940475Y-26536987D01*
X2940475Y-26536987D02*
X3142856Y-26536987D01*
X3142856Y-26536987D02*
X3223808Y-26577463D01*
X3223808Y-26577463D02*
X3264284Y-26617939D01*
X3264284Y-26617939D02*
X3304761Y-26698891D01*
X3304761Y-26698891D02*
X3304761Y-26779844D01*
X3304761Y-26779844D02*
X3264284Y-26901272D01*
X3264284Y-26901272D02*
X2778570Y-27386987D01*
X2778570Y-27386987D02*
X3304761Y-27386987D01*
X4316665Y-27386987D02*
X4316665Y-26536987D01*
X4316665Y-26941749D02*
X4802380Y-26941749D01*
X4802380Y-27386987D02*
X4802380Y-26536987D01*
X5207141Y-27386987D02*
X5207141Y-26536987D01*
X5207141Y-26536987D02*
X5490475Y-27144130D01*
X5490475Y-27144130D02*
X5773808Y-26536987D01*
X5773808Y-26536987D02*
X5773808Y-27386987D01*
X6178570Y-27386987D02*
X6178570Y-26536987D01*
X6178570Y-26536987D02*
X6502380Y-26536987D01*
X6502380Y-26536987D02*
X6583332Y-26577463D01*
X6583332Y-26577463D02*
X6623809Y-26617939D01*
X6623809Y-26617939D02*
X6664285Y-26698891D01*
X6664285Y-26698891D02*
X6664285Y-26820320D01*
X6664285Y-26820320D02*
X6623809Y-26901272D01*
X6623809Y-26901272D02*
X6583332Y-26941749D01*
X6583332Y-26941749D02*
X6502380Y-26982225D01*
X6502380Y-26982225D02*
X6178570Y-26982225D01*
X7473809Y-27386987D02*
X6988094Y-27386987D01*
X7230951Y-27386987D02*
X7230951Y-26536987D01*
X7230951Y-26536987D02*
X7149999Y-26658415D01*
X7149999Y-26658415D02*
X7069047Y-26739368D01*
X7069047Y-26739368D02*
X6988094Y-26779844D01*
X8283333Y-27386987D02*
X7797618Y-27386987D01*
X8040475Y-27386987D02*
X8040475Y-26536987D01*
X8040475Y-26536987D02*
X7959523Y-26658415D01*
X7959523Y-26658415D02*
X7878571Y-26739368D01*
X7878571Y-26739368D02*
X7797618Y-26779844D01*
X9052380Y-26536987D02*
X8647618Y-26536987D01*
X8647618Y-26536987D02*
X8607142Y-26941749D01*
X8607142Y-26941749D02*
X8647618Y-26901272D01*
X8647618Y-26901272D02*
X8728571Y-26860796D01*
X8728571Y-26860796D02*
X8930952Y-26860796D01*
X8930952Y-26860796D02*
X9011904Y-26901272D01*
X9011904Y-26901272D02*
X9052380Y-26941749D01*
X9052380Y-26941749D02*
X9092857Y-27022701D01*
X9092857Y-27022701D02*
X9092857Y-27225082D01*
X9092857Y-27225082D02*
X9052380Y-27306034D01*
X9052380Y-27306034D02*
X9011904Y-27346511D01*
X9011904Y-27346511D02*
X8930952Y-27386987D01*
X8930952Y-27386987D02*
X8728571Y-27386987D01*
X8728571Y-27386987D02*
X8647618Y-27346511D01*
X8647618Y-27346511D02*
X8607142Y-27306034D01*
X10590476Y-27386987D02*
X10307142Y-26982225D01*
X10104761Y-27386987D02*
X10104761Y-26536987D01*
X10104761Y-26536987D02*
X10428571Y-26536987D01*
X10428571Y-26536987D02*
X10509523Y-26577463D01*
X10509523Y-26577463D02*
X10550000Y-26617939D01*
X10550000Y-26617939D02*
X10590476Y-26698891D01*
X10590476Y-26698891D02*
X10590476Y-26820320D01*
X10590476Y-26820320D02*
X10550000Y-26901272D01*
X10550000Y-26901272D02*
X10509523Y-26941749D01*
X10509523Y-26941749D02*
X10428571Y-26982225D01*
X10428571Y-26982225D02*
X10104761Y-26982225D01*
X10914285Y-27346511D02*
X11035714Y-27386987D01*
X11035714Y-27386987D02*
X11238095Y-27386987D01*
X11238095Y-27386987D02*
X11319047Y-27346511D01*
X11319047Y-27346511D02*
X11359523Y-27306034D01*
X11359523Y-27306034D02*
X11400000Y-27225082D01*
X11400000Y-27225082D02*
X11400000Y-27144130D01*
X11400000Y-27144130D02*
X11359523Y-27063177D01*
X11359523Y-27063177D02*
X11319047Y-27022701D01*
X11319047Y-27022701D02*
X11238095Y-26982225D01*
X11238095Y-26982225D02*
X11076190Y-26941749D01*
X11076190Y-26941749D02*
X10995238Y-26901272D01*
X10995238Y-26901272D02*
X10954761Y-26860796D01*
X10954761Y-26860796D02*
X10914285Y-26779844D01*
X10914285Y-26779844D02*
X10914285Y-26698891D01*
X10914285Y-26698891D02*
X10954761Y-26617939D01*
X10954761Y-26617939D02*
X10995238Y-26577463D01*
X10995238Y-26577463D02*
X11076190Y-26536987D01*
X11076190Y-26536987D02*
X11278571Y-26536987D01*
X11278571Y-26536987D02*
X11400000Y-26577463D01*
X12128571Y-26820320D02*
X12128571Y-27386987D01*
X11926190Y-26496511D02*
X11723809Y-27103653D01*
X11723809Y-27103653D02*
X12250000Y-27103653D01*
X12695238Y-26901272D02*
X12614286Y-26860796D01*
X12614286Y-26860796D02*
X12573809Y-26820320D01*
X12573809Y-26820320D02*
X12533333Y-26739368D01*
X12533333Y-26739368D02*
X12533333Y-26698891D01*
X12533333Y-26698891D02*
X12573809Y-26617939D01*
X12573809Y-26617939D02*
X12614286Y-26577463D01*
X12614286Y-26577463D02*
X12695238Y-26536987D01*
X12695238Y-26536987D02*
X12857143Y-26536987D01*
X12857143Y-26536987D02*
X12938095Y-26577463D01*
X12938095Y-26577463D02*
X12978571Y-26617939D01*
X12978571Y-26617939D02*
X13019048Y-26698891D01*
X13019048Y-26698891D02*
X13019048Y-26739368D01*
X13019048Y-26739368D02*
X12978571Y-26820320D01*
X12978571Y-26820320D02*
X12938095Y-26860796D01*
X12938095Y-26860796D02*
X12857143Y-26901272D01*
X12857143Y-26901272D02*
X12695238Y-26901272D01*
X12695238Y-26901272D02*
X12614286Y-26941749D01*
X12614286Y-26941749D02*
X12573809Y-26982225D01*
X12573809Y-26982225D02*
X12533333Y-27063177D01*
X12533333Y-27063177D02*
X12533333Y-27225082D01*
X12533333Y-27225082D02*
X12573809Y-27306034D01*
X12573809Y-27306034D02*
X12614286Y-27346511D01*
X12614286Y-27346511D02*
X12695238Y-27386987D01*
X12695238Y-27386987D02*
X12857143Y-27386987D01*
X12857143Y-27386987D02*
X12938095Y-27346511D01*
X12938095Y-27346511D02*
X12978571Y-27306034D01*
X12978571Y-27306034D02*
X13019048Y-27225082D01*
X13019048Y-27225082D02*
X13019048Y-27063177D01*
X13019048Y-27063177D02*
X12978571Y-26982225D01*
X12978571Y-26982225D02*
X12938095Y-26941749D01*
X12938095Y-26941749D02*
X12857143Y-26901272D01*
X13788095Y-26536987D02*
X13383333Y-26536987D01*
X13383333Y-26536987D02*
X13342857Y-26941749D01*
X13342857Y-26941749D02*
X13383333Y-26901272D01*
X13383333Y-26901272D02*
X13464286Y-26860796D01*
X13464286Y-26860796D02*
X13666667Y-26860796D01*
X13666667Y-26860796D02*
X13747619Y-26901272D01*
X13747619Y-26901272D02*
X13788095Y-26941749D01*
X13788095Y-26941749D02*
X13828572Y-27022701D01*
X13828572Y-27022701D02*
X13828572Y-27225082D01*
X13828572Y-27225082D02*
X13788095Y-27306034D01*
X13788095Y-27306034D02*
X13747619Y-27346511D01*
X13747619Y-27346511D02*
X13666667Y-27386987D01*
X13666667Y-27386987D02*
X13464286Y-27386987D01*
X13464286Y-27386987D02*
X13383333Y-27346511D01*
X13383333Y-27346511D02*
X13342857Y-27306034D01*
X3466666Y-54536987D02*
X3466666Y-55144130D01*
X3466666Y-55144130D02*
X3426189Y-55265558D01*
X3426189Y-55265558D02*
X3345237Y-55346511D01*
X3345237Y-55346511D02*
X3223808Y-55386987D01*
X3223808Y-55386987D02*
X3142856Y-55386987D01*
X3790475Y-54536987D02*
X4316666Y-54536987D01*
X4316666Y-54536987D02*
X4033332Y-54860796D01*
X4033332Y-54860796D02*
X4154761Y-54860796D01*
X4154761Y-54860796D02*
X4235713Y-54901272D01*
X4235713Y-54901272D02*
X4276189Y-54941749D01*
X4276189Y-54941749D02*
X4316666Y-55022701D01*
X4316666Y-55022701D02*
X4316666Y-55225082D01*
X4316666Y-55225082D02*
X4276189Y-55306034D01*
X4276189Y-55306034D02*
X4235713Y-55346511D01*
X4235713Y-55346511D02*
X4154761Y-55386987D01*
X4154761Y-55386987D02*
X3911904Y-55386987D01*
X3911904Y-55386987D02*
X3830951Y-55346511D01*
X3830951Y-55346511D02*
X3790475Y-55306034D01*
X5328570Y-55386987D02*
X5328570Y-54536987D01*
X5328570Y-54536987D02*
X5530951Y-54536987D01*
X5530951Y-54536987D02*
X5652380Y-54577463D01*
X5652380Y-54577463D02*
X5733332Y-54658415D01*
X5733332Y-54658415D02*
X5773809Y-54739368D01*
X5773809Y-54739368D02*
X5814285Y-54901272D01*
X5814285Y-54901272D02*
X5814285Y-55022701D01*
X5814285Y-55022701D02*
X5773809Y-55184606D01*
X5773809Y-55184606D02*
X5733332Y-55265558D01*
X5733332Y-55265558D02*
X5652380Y-55346511D01*
X5652380Y-55346511D02*
X5530951Y-55386987D01*
X5530951Y-55386987D02*
X5328570Y-55386987D01*
X6057142Y-54536987D02*
X6542856Y-54536987D01*
X6299999Y-55386987D02*
X6299999Y-54536987D01*
X6947618Y-54901272D02*
X6866666Y-54860796D01*
X6866666Y-54860796D02*
X6826189Y-54820320D01*
X6826189Y-54820320D02*
X6785713Y-54739368D01*
X6785713Y-54739368D02*
X6785713Y-54698891D01*
X6785713Y-54698891D02*
X6826189Y-54617939D01*
X6826189Y-54617939D02*
X6866666Y-54577463D01*
X6866666Y-54577463D02*
X6947618Y-54536987D01*
X6947618Y-54536987D02*
X7109523Y-54536987D01*
X7109523Y-54536987D02*
X7190475Y-54577463D01*
X7190475Y-54577463D02*
X7230951Y-54617939D01*
X7230951Y-54617939D02*
X7271428Y-54698891D01*
X7271428Y-54698891D02*
X7271428Y-54739368D01*
X7271428Y-54739368D02*
X7230951Y-54820320D01*
X7230951Y-54820320D02*
X7190475Y-54860796D01*
X7190475Y-54860796D02*
X7109523Y-54901272D01*
X7109523Y-54901272D02*
X6947618Y-54901272D01*
X6947618Y-54901272D02*
X6866666Y-54941749D01*
X6866666Y-54941749D02*
X6826189Y-54982225D01*
X6826189Y-54982225D02*
X6785713Y-55063177D01*
X6785713Y-55063177D02*
X6785713Y-55225082D01*
X6785713Y-55225082D02*
X6826189Y-55306034D01*
X6826189Y-55306034D02*
X6866666Y-55346511D01*
X6866666Y-55346511D02*
X6947618Y-55386987D01*
X6947618Y-55386987D02*
X7109523Y-55386987D01*
X7109523Y-55386987D02*
X7190475Y-55346511D01*
X7190475Y-55346511D02*
X7230951Y-55306034D01*
X7230951Y-55306034D02*
X7271428Y-55225082D01*
X7271428Y-55225082D02*
X7271428Y-55063177D01*
X7271428Y-55063177D02*
X7230951Y-54982225D01*
X7230951Y-54982225D02*
X7190475Y-54941749D01*
X7190475Y-54941749D02*
X7109523Y-54901272D01*
X7797618Y-54536987D02*
X7878571Y-54536987D01*
X7878571Y-54536987D02*
X7959523Y-54577463D01*
X7959523Y-54577463D02*
X7999999Y-54617939D01*
X7999999Y-54617939D02*
X8040475Y-54698891D01*
X8040475Y-54698891D02*
X8080952Y-54860796D01*
X8080952Y-54860796D02*
X8080952Y-55063177D01*
X8080952Y-55063177D02*
X8040475Y-55225082D01*
X8040475Y-55225082D02*
X7999999Y-55306034D01*
X7999999Y-55306034D02*
X7959523Y-55346511D01*
X7959523Y-55346511D02*
X7878571Y-55386987D01*
X7878571Y-55386987D02*
X7797618Y-55386987D01*
X7797618Y-55386987D02*
X7716666Y-55346511D01*
X7716666Y-55346511D02*
X7676190Y-55306034D01*
X7676190Y-55306034D02*
X7635713Y-55225082D01*
X7635713Y-55225082D02*
X7595237Y-55063177D01*
X7595237Y-55063177D02*
X7595237Y-54860796D01*
X7595237Y-54860796D02*
X7635713Y-54698891D01*
X7635713Y-54698891D02*
X7676190Y-54617939D01*
X7676190Y-54617939D02*
X7716666Y-54577463D01*
X7716666Y-54577463D02*
X7797618Y-54536987D01*
X9578571Y-55386987D02*
X9295237Y-54982225D01*
X9092856Y-55386987D02*
X9092856Y-54536987D01*
X9092856Y-54536987D02*
X9416666Y-54536987D01*
X9416666Y-54536987D02*
X9497618Y-54577463D01*
X9497618Y-54577463D02*
X9538095Y-54617939D01*
X9538095Y-54617939D02*
X9578571Y-54698891D01*
X9578571Y-54698891D02*
X9578571Y-54820320D01*
X9578571Y-54820320D02*
X9538095Y-54901272D01*
X9538095Y-54901272D02*
X9497618Y-54941749D01*
X9497618Y-54941749D02*
X9416666Y-54982225D01*
X9416666Y-54982225D02*
X9092856Y-54982225D01*
X9902380Y-55346511D02*
X10023809Y-55386987D01*
X10023809Y-55386987D02*
X10226190Y-55386987D01*
X10226190Y-55386987D02*
X10307142Y-55346511D01*
X10307142Y-55346511D02*
X10347618Y-55306034D01*
X10347618Y-55306034D02*
X10388095Y-55225082D01*
X10388095Y-55225082D02*
X10388095Y-55144130D01*
X10388095Y-55144130D02*
X10347618Y-55063177D01*
X10347618Y-55063177D02*
X10307142Y-55022701D01*
X10307142Y-55022701D02*
X10226190Y-54982225D01*
X10226190Y-54982225D02*
X10064285Y-54941749D01*
X10064285Y-54941749D02*
X9983333Y-54901272D01*
X9983333Y-54901272D02*
X9942856Y-54860796D01*
X9942856Y-54860796D02*
X9902380Y-54779844D01*
X9902380Y-54779844D02*
X9902380Y-54698891D01*
X9902380Y-54698891D02*
X9942856Y-54617939D01*
X9942856Y-54617939D02*
X9983333Y-54577463D01*
X9983333Y-54577463D02*
X10064285Y-54536987D01*
X10064285Y-54536987D02*
X10266666Y-54536987D01*
X10266666Y-54536987D02*
X10388095Y-54577463D01*
X11116666Y-54820320D02*
X11116666Y-55386987D01*
X10914285Y-54496511D02*
X10711904Y-55103653D01*
X10711904Y-55103653D02*
X11238095Y-55103653D01*
X11683333Y-54901272D02*
X11602381Y-54860796D01*
X11602381Y-54860796D02*
X11561904Y-54820320D01*
X11561904Y-54820320D02*
X11521428Y-54739368D01*
X11521428Y-54739368D02*
X11521428Y-54698891D01*
X11521428Y-54698891D02*
X11561904Y-54617939D01*
X11561904Y-54617939D02*
X11602381Y-54577463D01*
X11602381Y-54577463D02*
X11683333Y-54536987D01*
X11683333Y-54536987D02*
X11845238Y-54536987D01*
X11845238Y-54536987D02*
X11926190Y-54577463D01*
X11926190Y-54577463D02*
X11966666Y-54617939D01*
X11966666Y-54617939D02*
X12007143Y-54698891D01*
X12007143Y-54698891D02*
X12007143Y-54739368D01*
X12007143Y-54739368D02*
X11966666Y-54820320D01*
X11966666Y-54820320D02*
X11926190Y-54860796D01*
X11926190Y-54860796D02*
X11845238Y-54901272D01*
X11845238Y-54901272D02*
X11683333Y-54901272D01*
X11683333Y-54901272D02*
X11602381Y-54941749D01*
X11602381Y-54941749D02*
X11561904Y-54982225D01*
X11561904Y-54982225D02*
X11521428Y-55063177D01*
X11521428Y-55063177D02*
X11521428Y-55225082D01*
X11521428Y-55225082D02*
X11561904Y-55306034D01*
X11561904Y-55306034D02*
X11602381Y-55346511D01*
X11602381Y-55346511D02*
X11683333Y-55386987D01*
X11683333Y-55386987D02*
X11845238Y-55386987D01*
X11845238Y-55386987D02*
X11926190Y-55346511D01*
X11926190Y-55346511D02*
X11966666Y-55306034D01*
X11966666Y-55306034D02*
X12007143Y-55225082D01*
X12007143Y-55225082D02*
X12007143Y-55063177D01*
X12007143Y-55063177D02*
X11966666Y-54982225D01*
X11966666Y-54982225D02*
X11926190Y-54941749D01*
X11926190Y-54941749D02*
X11845238Y-54901272D01*
X12776190Y-54536987D02*
X12371428Y-54536987D01*
X12371428Y-54536987D02*
X12330952Y-54941749D01*
X12330952Y-54941749D02*
X12371428Y-54901272D01*
X12371428Y-54901272D02*
X12452381Y-54860796D01*
X12452381Y-54860796D02*
X12654762Y-54860796D01*
X12654762Y-54860796D02*
X12735714Y-54901272D01*
X12735714Y-54901272D02*
X12776190Y-54941749D01*
X12776190Y-54941749D02*
X12816667Y-55022701D01*
X12816667Y-55022701D02*
X12816667Y-55225082D01*
X12816667Y-55225082D02*
X12776190Y-55306034D01*
X12776190Y-55306034D02*
X12735714Y-55346511D01*
X12735714Y-55346511D02*
X12654762Y-55386987D01*
X12654762Y-55386987D02*
X12452381Y-55386987D01*
X12452381Y-55386987D02*
X12371428Y-55346511D01*
X12371428Y-55346511D02*
X12330952Y-55306034D01*
X40794047Y-7536987D02*
X40389285Y-7536987D01*
X40389285Y-7536987D02*
X40348809Y-7941749D01*
X40348809Y-7941749D02*
X40389285Y-7901272D01*
X40389285Y-7901272D02*
X40470238Y-7860796D01*
X40470238Y-7860796D02*
X40672619Y-7860796D01*
X40672619Y-7860796D02*
X40753571Y-7901272D01*
X40753571Y-7901272D02*
X40794047Y-7941749D01*
X40794047Y-7941749D02*
X40834524Y-8022701D01*
X40834524Y-8022701D02*
X40834524Y-8225082D01*
X40834524Y-8225082D02*
X40794047Y-8306034D01*
X40794047Y-8306034D02*
X40753571Y-8346511D01*
X40753571Y-8346511D02*
X40672619Y-8386987D01*
X40672619Y-8386987D02*
X40470238Y-8386987D01*
X40470238Y-8386987D02*
X40389285Y-8346511D01*
X40389285Y-8346511D02*
X40348809Y-8306034D01*
X41077381Y-7536987D02*
X41360714Y-8386987D01*
X41360714Y-8386987D02*
X41644048Y-7536987D01*
X42858333Y-7941749D02*
X42979761Y-7982225D01*
X42979761Y-7982225D02*
X43020238Y-8022701D01*
X43020238Y-8022701D02*
X43060714Y-8103653D01*
X43060714Y-8103653D02*
X43060714Y-8225082D01*
X43060714Y-8225082D02*
X43020238Y-8306034D01*
X43020238Y-8306034D02*
X42979761Y-8346511D01*
X42979761Y-8346511D02*
X42898809Y-8386987D01*
X42898809Y-8386987D02*
X42574999Y-8386987D01*
X42574999Y-8386987D02*
X42574999Y-7536987D01*
X42574999Y-7536987D02*
X42858333Y-7536987D01*
X42858333Y-7536987D02*
X42939285Y-7577463D01*
X42939285Y-7577463D02*
X42979761Y-7617939D01*
X42979761Y-7617939D02*
X43020238Y-7698891D01*
X43020238Y-7698891D02*
X43020238Y-7779844D01*
X43020238Y-7779844D02*
X42979761Y-7860796D01*
X42979761Y-7860796D02*
X42939285Y-7901272D01*
X42939285Y-7901272D02*
X42858333Y-7941749D01*
X42858333Y-7941749D02*
X42574999Y-7941749D01*
X43424999Y-7536987D02*
X43424999Y-8225082D01*
X43424999Y-8225082D02*
X43465476Y-8306034D01*
X43465476Y-8306034D02*
X43505952Y-8346511D01*
X43505952Y-8346511D02*
X43586904Y-8386987D01*
X43586904Y-8386987D02*
X43748809Y-8386987D01*
X43748809Y-8386987D02*
X43829761Y-8346511D01*
X43829761Y-8346511D02*
X43870238Y-8306034D01*
X43870238Y-8306034D02*
X43910714Y-8225082D01*
X43910714Y-8225082D02*
X43910714Y-7536987D01*
X44801190Y-8306034D02*
X44760714Y-8346511D01*
X44760714Y-8346511D02*
X44639285Y-8386987D01*
X44639285Y-8386987D02*
X44558333Y-8386987D01*
X44558333Y-8386987D02*
X44436904Y-8346511D01*
X44436904Y-8346511D02*
X44355952Y-8265558D01*
X44355952Y-8265558D02*
X44315475Y-8184606D01*
X44315475Y-8184606D02*
X44274999Y-8022701D01*
X44274999Y-8022701D02*
X44274999Y-7901272D01*
X44274999Y-7901272D02*
X44315475Y-7739368D01*
X44315475Y-7739368D02*
X44355952Y-7658415D01*
X44355952Y-7658415D02*
X44436904Y-7577463D01*
X44436904Y-7577463D02*
X44558333Y-7536987D01*
X44558333Y-7536987D02*
X44639285Y-7536987D01*
X44639285Y-7536987D02*
X44760714Y-7577463D01*
X44760714Y-7577463D02*
X44801190Y-7617939D01*
X45165475Y-8386987D02*
X45165475Y-7536987D01*
X45651190Y-8386987D02*
X45286904Y-7901272D01*
X45651190Y-7536987D02*
X45165475Y-8022701D01*
X74947619Y-5536987D02*
X75473810Y-5536987D01*
X75473810Y-5536987D02*
X75190476Y-5860796D01*
X75190476Y-5860796D02*
X75311905Y-5860796D01*
X75311905Y-5860796D02*
X75392857Y-5901272D01*
X75392857Y-5901272D02*
X75433333Y-5941749D01*
X75433333Y-5941749D02*
X75473810Y-6022701D01*
X75473810Y-6022701D02*
X75473810Y-6225082D01*
X75473810Y-6225082D02*
X75433333Y-6306034D01*
X75433333Y-6306034D02*
X75392857Y-6346511D01*
X75392857Y-6346511D02*
X75311905Y-6386987D01*
X75311905Y-6386987D02*
X75069048Y-6386987D01*
X75069048Y-6386987D02*
X74988095Y-6346511D01*
X74988095Y-6346511D02*
X74947619Y-6306034D01*
X75716667Y-5536987D02*
X76000000Y-6386987D01*
X76000000Y-6386987D02*
X76283334Y-5536987D01*
X76485714Y-5536987D02*
X77011905Y-5536987D01*
X77011905Y-5536987D02*
X76728571Y-5860796D01*
X76728571Y-5860796D02*
X76850000Y-5860796D01*
X76850000Y-5860796D02*
X76930952Y-5901272D01*
X76930952Y-5901272D02*
X76971428Y-5941749D01*
X76971428Y-5941749D02*
X77011905Y-6022701D01*
X77011905Y-6022701D02*
X77011905Y-6225082D01*
X77011905Y-6225082D02*
X76971428Y-6306034D01*
X76971428Y-6306034D02*
X76930952Y-6346511D01*
X76930952Y-6346511D02*
X76850000Y-6386987D01*
X76850000Y-6386987D02*
X76607143Y-6386987D01*
X76607143Y-6386987D02*
X76526190Y-6346511D01*
X76526190Y-6346511D02*
X76485714Y-6306034D01*
X80385715Y-13536987D02*
X80385715Y-14144130D01*
X80385715Y-14144130D02*
X80345238Y-14265558D01*
X80345238Y-14265558D02*
X80264286Y-14346511D01*
X80264286Y-14346511D02*
X80142857Y-14386987D01*
X80142857Y-14386987D02*
X80061905Y-14386987D01*
X81154762Y-13820320D02*
X81154762Y-14386987D01*
X80952381Y-13496511D02*
X80750000Y-14103653D01*
X80750000Y-14103653D02*
X81276191Y-14103653D01*
X82207143Y-14346511D02*
X82328572Y-14386987D01*
X82328572Y-14386987D02*
X82530953Y-14386987D01*
X82530953Y-14386987D02*
X82611905Y-14346511D01*
X82611905Y-14346511D02*
X82652381Y-14306034D01*
X82652381Y-14306034D02*
X82692858Y-14225082D01*
X82692858Y-14225082D02*
X82692858Y-14144130D01*
X82692858Y-14144130D02*
X82652381Y-14063177D01*
X82652381Y-14063177D02*
X82611905Y-14022701D01*
X82611905Y-14022701D02*
X82530953Y-13982225D01*
X82530953Y-13982225D02*
X82369048Y-13941749D01*
X82369048Y-13941749D02*
X82288096Y-13901272D01*
X82288096Y-13901272D02*
X82247619Y-13860796D01*
X82247619Y-13860796D02*
X82207143Y-13779844D01*
X82207143Y-13779844D02*
X82207143Y-13698891D01*
X82207143Y-13698891D02*
X82247619Y-13617939D01*
X82247619Y-13617939D02*
X82288096Y-13577463D01*
X82288096Y-13577463D02*
X82369048Y-13536987D01*
X82369048Y-13536987D02*
X82571429Y-13536987D01*
X82571429Y-13536987D02*
X82692858Y-13577463D01*
X83057143Y-13941749D02*
X83340477Y-13941749D01*
X83461905Y-14386987D02*
X83057143Y-14386987D01*
X83057143Y-14386987D02*
X83057143Y-13536987D01*
X83057143Y-13536987D02*
X83461905Y-13536987D01*
X83826191Y-14386987D02*
X83826191Y-13536987D01*
X83826191Y-13536987D02*
X84311906Y-14386987D01*
X84311906Y-14386987D02*
X84311906Y-13536987D01*
X84676191Y-14346511D02*
X84797620Y-14386987D01*
X84797620Y-14386987D02*
X85000001Y-14386987D01*
X85000001Y-14386987D02*
X85080953Y-14346511D01*
X85080953Y-14346511D02*
X85121429Y-14306034D01*
X85121429Y-14306034D02*
X85161906Y-14225082D01*
X85161906Y-14225082D02*
X85161906Y-14144130D01*
X85161906Y-14144130D02*
X85121429Y-14063177D01*
X85121429Y-14063177D02*
X85080953Y-14022701D01*
X85080953Y-14022701D02*
X85000001Y-13982225D01*
X85000001Y-13982225D02*
X84838096Y-13941749D01*
X84838096Y-13941749D02*
X84757144Y-13901272D01*
X84757144Y-13901272D02*
X84716667Y-13860796D01*
X84716667Y-13860796D02*
X84676191Y-13779844D01*
X84676191Y-13779844D02*
X84676191Y-13698891D01*
X84676191Y-13698891D02*
X84716667Y-13617939D01*
X84716667Y-13617939D02*
X84757144Y-13577463D01*
X84757144Y-13577463D02*
X84838096Y-13536987D01*
X84838096Y-13536987D02*
X85040477Y-13536987D01*
X85040477Y-13536987D02*
X85161906Y-13577463D01*
X85688096Y-13536987D02*
X85850001Y-13536987D01*
X85850001Y-13536987D02*
X85930953Y-13577463D01*
X85930953Y-13577463D02*
X86011906Y-13658415D01*
X86011906Y-13658415D02*
X86052382Y-13820320D01*
X86052382Y-13820320D02*
X86052382Y-14103653D01*
X86052382Y-14103653D02*
X86011906Y-14265558D01*
X86011906Y-14265558D02*
X85930953Y-14346511D01*
X85930953Y-14346511D02*
X85850001Y-14386987D01*
X85850001Y-14386987D02*
X85688096Y-14386987D01*
X85688096Y-14386987D02*
X85607144Y-14346511D01*
X85607144Y-14346511D02*
X85526191Y-14265558D01*
X85526191Y-14265558D02*
X85485715Y-14103653D01*
X85485715Y-14103653D02*
X85485715Y-13820320D01*
X85485715Y-13820320D02*
X85526191Y-13658415D01*
X85526191Y-13658415D02*
X85607144Y-13577463D01*
X85607144Y-13577463D02*
X85688096Y-13536987D01*
X86902382Y-14386987D02*
X86619048Y-13982225D01*
X86416667Y-14386987D02*
X86416667Y-13536987D01*
X86416667Y-13536987D02*
X86740477Y-13536987D01*
X86740477Y-13536987D02*
X86821429Y-13577463D01*
X86821429Y-13577463D02*
X86861906Y-13617939D01*
X86861906Y-13617939D02*
X86902382Y-13698891D01*
X86902382Y-13698891D02*
X86902382Y-13820320D01*
X86902382Y-13820320D02*
X86861906Y-13901272D01*
X86861906Y-13901272D02*
X86821429Y-13941749D01*
X86821429Y-13941749D02*
X86740477Y-13982225D01*
X86740477Y-13982225D02*
X86416667Y-13982225D01*
X87873810Y-14144130D02*
X88278572Y-14144130D01*
X87792858Y-14386987D02*
X88076191Y-13536987D01*
X88076191Y-13536987D02*
X88359525Y-14386987D01*
X88642857Y-14386987D02*
X88642857Y-13536987D01*
X88642857Y-13536987D02*
X89128572Y-14386987D01*
X89128572Y-14386987D02*
X89128572Y-13536987D01*
X89492857Y-14144130D02*
X89897619Y-14144130D01*
X89411905Y-14386987D02*
X89695238Y-13536987D01*
X89695238Y-13536987D02*
X89978572Y-14386987D01*
X81336905Y-47536987D02*
X81336905Y-48144130D01*
X81336905Y-48144130D02*
X81296428Y-48265558D01*
X81296428Y-48265558D02*
X81215476Y-48346511D01*
X81215476Y-48346511D02*
X81094047Y-48386987D01*
X81094047Y-48386987D02*
X81013095Y-48386987D01*
X82146428Y-47536987D02*
X81741666Y-47536987D01*
X81741666Y-47536987D02*
X81701190Y-47941749D01*
X81701190Y-47941749D02*
X81741666Y-47901272D01*
X81741666Y-47901272D02*
X81822619Y-47860796D01*
X81822619Y-47860796D02*
X82025000Y-47860796D01*
X82025000Y-47860796D02*
X82105952Y-47901272D01*
X82105952Y-47901272D02*
X82146428Y-47941749D01*
X82146428Y-47941749D02*
X82186905Y-48022701D01*
X82186905Y-48022701D02*
X82186905Y-48225082D01*
X82186905Y-48225082D02*
X82146428Y-48306034D01*
X82146428Y-48306034D02*
X82105952Y-48346511D01*
X82105952Y-48346511D02*
X82025000Y-48386987D01*
X82025000Y-48386987D02*
X81822619Y-48386987D01*
X81822619Y-48386987D02*
X81741666Y-48346511D01*
X81741666Y-48346511D02*
X81701190Y-48306034D01*
X83198809Y-48386987D02*
X83198809Y-47536987D01*
X83198809Y-47536987D02*
X83401190Y-47536987D01*
X83401190Y-47536987D02*
X83522619Y-47577463D01*
X83522619Y-47577463D02*
X83603571Y-47658415D01*
X83603571Y-47658415D02*
X83644048Y-47739368D01*
X83644048Y-47739368D02*
X83684524Y-47901272D01*
X83684524Y-47901272D02*
X83684524Y-48022701D01*
X83684524Y-48022701D02*
X83644048Y-48184606D01*
X83644048Y-48184606D02*
X83603571Y-48265558D01*
X83603571Y-48265558D02*
X83522619Y-48346511D01*
X83522619Y-48346511D02*
X83401190Y-48386987D01*
X83401190Y-48386987D02*
X83198809Y-48386987D01*
X83927381Y-47536987D02*
X84413095Y-47536987D01*
X84170238Y-48386987D02*
X84170238Y-47536987D01*
X84817857Y-47901272D02*
X84736905Y-47860796D01*
X84736905Y-47860796D02*
X84696428Y-47820320D01*
X84696428Y-47820320D02*
X84655952Y-47739368D01*
X84655952Y-47739368D02*
X84655952Y-47698891D01*
X84655952Y-47698891D02*
X84696428Y-47617939D01*
X84696428Y-47617939D02*
X84736905Y-47577463D01*
X84736905Y-47577463D02*
X84817857Y-47536987D01*
X84817857Y-47536987D02*
X84979762Y-47536987D01*
X84979762Y-47536987D02*
X85060714Y-47577463D01*
X85060714Y-47577463D02*
X85101190Y-47617939D01*
X85101190Y-47617939D02*
X85141667Y-47698891D01*
X85141667Y-47698891D02*
X85141667Y-47739368D01*
X85141667Y-47739368D02*
X85101190Y-47820320D01*
X85101190Y-47820320D02*
X85060714Y-47860796D01*
X85060714Y-47860796D02*
X84979762Y-47901272D01*
X84979762Y-47901272D02*
X84817857Y-47901272D01*
X84817857Y-47901272D02*
X84736905Y-47941749D01*
X84736905Y-47941749D02*
X84696428Y-47982225D01*
X84696428Y-47982225D02*
X84655952Y-48063177D01*
X84655952Y-48063177D02*
X84655952Y-48225082D01*
X84655952Y-48225082D02*
X84696428Y-48306034D01*
X84696428Y-48306034D02*
X84736905Y-48346511D01*
X84736905Y-48346511D02*
X84817857Y-48386987D01*
X84817857Y-48386987D02*
X84979762Y-48386987D01*
X84979762Y-48386987D02*
X85060714Y-48346511D01*
X85060714Y-48346511D02*
X85101190Y-48306034D01*
X85101190Y-48306034D02*
X85141667Y-48225082D01*
X85141667Y-48225082D02*
X85141667Y-48063177D01*
X85141667Y-48063177D02*
X85101190Y-47982225D01*
X85101190Y-47982225D02*
X85060714Y-47941749D01*
X85060714Y-47941749D02*
X84979762Y-47901272D01*
X85667857Y-47536987D02*
X85748810Y-47536987D01*
X85748810Y-47536987D02*
X85829762Y-47577463D01*
X85829762Y-47577463D02*
X85870238Y-47617939D01*
X85870238Y-47617939D02*
X85910714Y-47698891D01*
X85910714Y-47698891D02*
X85951191Y-47860796D01*
X85951191Y-47860796D02*
X85951191Y-48063177D01*
X85951191Y-48063177D02*
X85910714Y-48225082D01*
X85910714Y-48225082D02*
X85870238Y-48306034D01*
X85870238Y-48306034D02*
X85829762Y-48346511D01*
X85829762Y-48346511D02*
X85748810Y-48386987D01*
X85748810Y-48386987D02*
X85667857Y-48386987D01*
X85667857Y-48386987D02*
X85586905Y-48346511D01*
X85586905Y-48346511D02*
X85546429Y-48306034D01*
X85546429Y-48306034D02*
X85505952Y-48225082D01*
X85505952Y-48225082D02*
X85465476Y-48063177D01*
X85465476Y-48063177D02*
X85465476Y-47860796D01*
X85465476Y-47860796D02*
X85505952Y-47698891D01*
X85505952Y-47698891D02*
X85546429Y-47617939D01*
X85546429Y-47617939D02*
X85586905Y-47577463D01*
X85586905Y-47577463D02*
X85667857Y-47536987D01*
X86922619Y-48144130D02*
X87327381Y-48144130D01*
X86841667Y-48386987D02*
X87125000Y-47536987D01*
X87125000Y-47536987D02*
X87408334Y-48386987D01*
X87691666Y-48386987D02*
X87691666Y-47536987D01*
X87691666Y-47536987D02*
X88177381Y-48386987D01*
X88177381Y-48386987D02*
X88177381Y-47536987D01*
X88541666Y-48144130D02*
X88946428Y-48144130D01*
X88460714Y-48386987D02*
X88744047Y-47536987D01*
X88744047Y-47536987D02*
X89027381Y-48386987D01*
D11*
X24335714Y-5501080D02*
X24335714Y-4401080D01*
X24335714Y-4924890D02*
X24964286Y-4924890D01*
X24964286Y-5501080D02*
X24964286Y-4401080D01*
X25488095Y-5501080D02*
X25488095Y-4401080D01*
X25488095Y-4401080D02*
X25854762Y-5186795D01*
X25854762Y-5186795D02*
X26221429Y-4401080D01*
X26221429Y-4401080D02*
X26221429Y-5501080D01*
X26745238Y-5501080D02*
X26745238Y-4401080D01*
X26745238Y-4401080D02*
X27164286Y-4401080D01*
X27164286Y-4401080D02*
X27269048Y-4453461D01*
X27269048Y-4453461D02*
X27321429Y-4505842D01*
X27321429Y-4505842D02*
X27373810Y-4610604D01*
X27373810Y-4610604D02*
X27373810Y-4767747D01*
X27373810Y-4767747D02*
X27321429Y-4872509D01*
X27321429Y-4872509D02*
X27269048Y-4924890D01*
X27269048Y-4924890D02*
X27164286Y-4977271D01*
X27164286Y-4977271D02*
X26745238Y-4977271D01*
X28421429Y-5501080D02*
X27792857Y-5501080D01*
X28107143Y-5501080D02*
X28107143Y-4401080D01*
X28107143Y-4401080D02*
X28002381Y-4558223D01*
X28002381Y-4558223D02*
X27897619Y-4662985D01*
X27897619Y-4662985D02*
X27792857Y-4715366D01*
X29469048Y-5501080D02*
X28840476Y-5501080D01*
X29154762Y-5501080D02*
X29154762Y-4401080D01*
X29154762Y-4401080D02*
X29050000Y-4558223D01*
X29050000Y-4558223D02*
X28945238Y-4662985D01*
X28945238Y-4662985D02*
X28840476Y-4715366D01*
X30464286Y-4401080D02*
X29940476Y-4401080D01*
X29940476Y-4401080D02*
X29888095Y-4924890D01*
X29888095Y-4924890D02*
X29940476Y-4872509D01*
X29940476Y-4872509D02*
X30045238Y-4820128D01*
X30045238Y-4820128D02*
X30307143Y-4820128D01*
X30307143Y-4820128D02*
X30411905Y-4872509D01*
X30411905Y-4872509D02*
X30464286Y-4924890D01*
X30464286Y-4924890D02*
X30516667Y-5029652D01*
X30516667Y-5029652D02*
X30516667Y-5291557D01*
X30516667Y-5291557D02*
X30464286Y-5396319D01*
X30464286Y-5396319D02*
X30411905Y-5448700D01*
X30411905Y-5448700D02*
X30307143Y-5501080D01*
X30307143Y-5501080D02*
X30045238Y-5501080D01*
X30045238Y-5501080D02*
X29940476Y-5448700D01*
X29940476Y-5448700D02*
X29888095Y-5396319D01*
X31826190Y-5501080D02*
X31826190Y-4401080D01*
X32350000Y-5501080D02*
X32350000Y-4401080D01*
X32350000Y-4401080D02*
X32978572Y-5501080D01*
X32978572Y-5501080D02*
X32978572Y-4401080D01*
X33345238Y-4401080D02*
X33973810Y-4401080D01*
X33659524Y-5501080D02*
X33659524Y-4401080D01*
X34340476Y-4924890D02*
X34707143Y-4924890D01*
X34864286Y-5501080D02*
X34340476Y-5501080D01*
X34340476Y-5501080D02*
X34340476Y-4401080D01*
X34340476Y-4401080D02*
X34864286Y-4401080D01*
X35964286Y-5501080D02*
X35597619Y-4977271D01*
X35335714Y-5501080D02*
X35335714Y-4401080D01*
X35335714Y-4401080D02*
X35754762Y-4401080D01*
X35754762Y-4401080D02*
X35859524Y-4453461D01*
X35859524Y-4453461D02*
X35911905Y-4505842D01*
X35911905Y-4505842D02*
X35964286Y-4610604D01*
X35964286Y-4610604D02*
X35964286Y-4767747D01*
X35964286Y-4767747D02*
X35911905Y-4872509D01*
X35911905Y-4872509D02*
X35859524Y-4924890D01*
X35859524Y-4924890D02*
X35754762Y-4977271D01*
X35754762Y-4977271D02*
X35335714Y-4977271D01*
X36802381Y-4924890D02*
X36435714Y-4924890D01*
X36435714Y-5501080D02*
X36435714Y-4401080D01*
X36435714Y-4401080D02*
X36959524Y-4401080D01*
X37326190Y-5186795D02*
X37850000Y-5186795D01*
X37221428Y-5501080D02*
X37588095Y-4401080D01*
X37588095Y-4401080D02*
X37954762Y-5501080D01*
X38950000Y-5396319D02*
X38897619Y-5448700D01*
X38897619Y-5448700D02*
X38740476Y-5501080D01*
X38740476Y-5501080D02*
X38635714Y-5501080D01*
X38635714Y-5501080D02*
X38478571Y-5448700D01*
X38478571Y-5448700D02*
X38373809Y-5343938D01*
X38373809Y-5343938D02*
X38321428Y-5239176D01*
X38321428Y-5239176D02*
X38269047Y-5029652D01*
X38269047Y-5029652D02*
X38269047Y-4872509D01*
X38269047Y-4872509D02*
X38321428Y-4662985D01*
X38321428Y-4662985D02*
X38373809Y-4558223D01*
X38373809Y-4558223D02*
X38478571Y-4453461D01*
X38478571Y-4453461D02*
X38635714Y-4401080D01*
X38635714Y-4401080D02*
X38740476Y-4401080D01*
X38740476Y-4401080D02*
X38897619Y-4453461D01*
X38897619Y-4453461D02*
X38950000Y-4505842D01*
X39421428Y-4924890D02*
X39788095Y-4924890D01*
X39945238Y-5501080D02*
X39421428Y-5501080D01*
X39421428Y-5501080D02*
X39421428Y-4401080D01*
X39421428Y-4401080D02*
X39945238Y-4401080D01*
X41149999Y-4767747D02*
X41411904Y-5501080D01*
X41411904Y-5501080D02*
X41673809Y-4767747D01*
X42302380Y-4401080D02*
X42407142Y-4401080D01*
X42407142Y-4401080D02*
X42511904Y-4453461D01*
X42511904Y-4453461D02*
X42564285Y-4505842D01*
X42564285Y-4505842D02*
X42616666Y-4610604D01*
X42616666Y-4610604D02*
X42669047Y-4820128D01*
X42669047Y-4820128D02*
X42669047Y-5082033D01*
X42669047Y-5082033D02*
X42616666Y-5291557D01*
X42616666Y-5291557D02*
X42564285Y-5396319D01*
X42564285Y-5396319D02*
X42511904Y-5448700D01*
X42511904Y-5448700D02*
X42407142Y-5501080D01*
X42407142Y-5501080D02*
X42302380Y-5501080D01*
X42302380Y-5501080D02*
X42197618Y-5448700D01*
X42197618Y-5448700D02*
X42145237Y-5396319D01*
X42145237Y-5396319D02*
X42092856Y-5291557D01*
X42092856Y-5291557D02*
X42040475Y-5082033D01*
X42040475Y-5082033D02*
X42040475Y-4820128D01*
X42040475Y-4820128D02*
X42092856Y-4610604D01*
X42092856Y-4610604D02*
X42145237Y-4505842D01*
X42145237Y-4505842D02*
X42197618Y-4453461D01*
X42197618Y-4453461D02*
X42302380Y-4401080D01*
X43088094Y-4505842D02*
X43140475Y-4453461D01*
X43140475Y-4453461D02*
X43245237Y-4401080D01*
X43245237Y-4401080D02*
X43507142Y-4401080D01*
X43507142Y-4401080D02*
X43611904Y-4453461D01*
X43611904Y-4453461D02*
X43664285Y-4505842D01*
X43664285Y-4505842D02*
X43716666Y-4610604D01*
X43716666Y-4610604D02*
X43716666Y-4715366D01*
X43716666Y-4715366D02*
X43664285Y-4872509D01*
X43664285Y-4872509D02*
X43035713Y-5501080D01*
X43035713Y-5501080D02*
X43716666Y-5501080D01*
X64604819Y-31738094D02*
X63604819Y-31738094D01*
X63604819Y-31738094D02*
X63604819Y-31499999D01*
X63604819Y-31499999D02*
X63652438Y-31357142D01*
X63652438Y-31357142D02*
X63747676Y-31261904D01*
X63747676Y-31261904D02*
X63842914Y-31214285D01*
X63842914Y-31214285D02*
X64033390Y-31166666D01*
X64033390Y-31166666D02*
X64176247Y-31166666D01*
X64176247Y-31166666D02*
X64366723Y-31214285D01*
X64366723Y-31214285D02*
X64461961Y-31261904D01*
X64461961Y-31261904D02*
X64557200Y-31357142D01*
X64557200Y-31357142D02*
X64604819Y-31499999D01*
X64604819Y-31499999D02*
X64604819Y-31738094D01*
X63700057Y-30785713D02*
X63652438Y-30738094D01*
X63652438Y-30738094D02*
X63604819Y-30642856D01*
X63604819Y-30642856D02*
X63604819Y-30404761D01*
X63604819Y-30404761D02*
X63652438Y-30309523D01*
X63652438Y-30309523D02*
X63700057Y-30261904D01*
X63700057Y-30261904D02*
X63795295Y-30214285D01*
X63795295Y-30214285D02*
X63890533Y-30214285D01*
X63890533Y-30214285D02*
X64033390Y-30261904D01*
X64033390Y-30261904D02*
X64604819Y-30833332D01*
X64604819Y-30833332D02*
X64604819Y-30214285D01*
X69833333Y-18929580D02*
X69785714Y-18977200D01*
X69785714Y-18977200D02*
X69642857Y-19024819D01*
X69642857Y-19024819D02*
X69547619Y-19024819D01*
X69547619Y-19024819D02*
X69404762Y-18977200D01*
X69404762Y-18977200D02*
X69309524Y-18881961D01*
X69309524Y-18881961D02*
X69261905Y-18786723D01*
X69261905Y-18786723D02*
X69214286Y-18596247D01*
X69214286Y-18596247D02*
X69214286Y-18453390D01*
X69214286Y-18453390D02*
X69261905Y-18262914D01*
X69261905Y-18262914D02*
X69309524Y-18167676D01*
X69309524Y-18167676D02*
X69404762Y-18072438D01*
X69404762Y-18072438D02*
X69547619Y-18024819D01*
X69547619Y-18024819D02*
X69642857Y-18024819D01*
X69642857Y-18024819D02*
X69785714Y-18072438D01*
X69785714Y-18072438D02*
X69833333Y-18120057D01*
X70738095Y-18024819D02*
X70261905Y-18024819D01*
X70261905Y-18024819D02*
X70214286Y-18501009D01*
X70214286Y-18501009D02*
X70261905Y-18453390D01*
X70261905Y-18453390D02*
X70357143Y-18405771D01*
X70357143Y-18405771D02*
X70595238Y-18405771D01*
X70595238Y-18405771D02*
X70690476Y-18453390D01*
X70690476Y-18453390D02*
X70738095Y-18501009D01*
X70738095Y-18501009D02*
X70785714Y-18596247D01*
X70785714Y-18596247D02*
X70785714Y-18834342D01*
X70785714Y-18834342D02*
X70738095Y-18929580D01*
X70738095Y-18929580D02*
X70690476Y-18977200D01*
X70690476Y-18977200D02*
X70595238Y-19024819D01*
X70595238Y-19024819D02*
X70357143Y-19024819D01*
X70357143Y-19024819D02*
X70261905Y-18977200D01*
X70261905Y-18977200D02*
X70214286Y-18929580D01*
X64833333Y-49024819D02*
X64500000Y-48548628D01*
X64261905Y-49024819D02*
X64261905Y-48024819D01*
X64261905Y-48024819D02*
X64642857Y-48024819D01*
X64642857Y-48024819D02*
X64738095Y-48072438D01*
X64738095Y-48072438D02*
X64785714Y-48120057D01*
X64785714Y-48120057D02*
X64833333Y-48215295D01*
X64833333Y-48215295D02*
X64833333Y-48358152D01*
X64833333Y-48358152D02*
X64785714Y-48453390D01*
X64785714Y-48453390D02*
X64738095Y-48501009D01*
X64738095Y-48501009D02*
X64642857Y-48548628D01*
X64642857Y-48548628D02*
X64261905Y-48548628D01*
X65214286Y-48120057D02*
X65261905Y-48072438D01*
X65261905Y-48072438D02*
X65357143Y-48024819D01*
X65357143Y-48024819D02*
X65595238Y-48024819D01*
X65595238Y-48024819D02*
X65690476Y-48072438D01*
X65690476Y-48072438D02*
X65738095Y-48120057D01*
X65738095Y-48120057D02*
X65785714Y-48215295D01*
X65785714Y-48215295D02*
X65785714Y-48310533D01*
X65785714Y-48310533D02*
X65738095Y-48453390D01*
X65738095Y-48453390D02*
X65166667Y-49024819D01*
X65166667Y-49024819D02*
X65785714Y-49024819D01*
X25286666Y-27134819D02*
X25286666Y-27849104D01*
X25286666Y-27849104D02*
X25239047Y-27991961D01*
X25239047Y-27991961D02*
X25143809Y-28087200D01*
X25143809Y-28087200D02*
X25000952Y-28134819D01*
X25000952Y-28134819D02*
X24905714Y-28134819D01*
X25715238Y-27230057D02*
X25762857Y-27182438D01*
X25762857Y-27182438D02*
X25858095Y-27134819D01*
X25858095Y-27134819D02*
X26096190Y-27134819D01*
X26096190Y-27134819D02*
X26191428Y-27182438D01*
X26191428Y-27182438D02*
X26239047Y-27230057D01*
X26239047Y-27230057D02*
X26286666Y-27325295D01*
X26286666Y-27325295D02*
X26286666Y-27420533D01*
X26286666Y-27420533D02*
X26239047Y-27563390D01*
X26239047Y-27563390D02*
X25667619Y-28134819D01*
X25667619Y-28134819D02*
X26286666Y-28134819D01*
X39833333Y-18929580D02*
X39785714Y-18977200D01*
X39785714Y-18977200D02*
X39642857Y-19024819D01*
X39642857Y-19024819D02*
X39547619Y-19024819D01*
X39547619Y-19024819D02*
X39404762Y-18977200D01*
X39404762Y-18977200D02*
X39309524Y-18881961D01*
X39309524Y-18881961D02*
X39261905Y-18786723D01*
X39261905Y-18786723D02*
X39214286Y-18596247D01*
X39214286Y-18596247D02*
X39214286Y-18453390D01*
X39214286Y-18453390D02*
X39261905Y-18262914D01*
X39261905Y-18262914D02*
X39309524Y-18167676D01*
X39309524Y-18167676D02*
X39404762Y-18072438D01*
X39404762Y-18072438D02*
X39547619Y-18024819D01*
X39547619Y-18024819D02*
X39642857Y-18024819D01*
X39642857Y-18024819D02*
X39785714Y-18072438D01*
X39785714Y-18072438D02*
X39833333Y-18120057D01*
X40166667Y-18024819D02*
X40785714Y-18024819D01*
X40785714Y-18024819D02*
X40452381Y-18405771D01*
X40452381Y-18405771D02*
X40595238Y-18405771D01*
X40595238Y-18405771D02*
X40690476Y-18453390D01*
X40690476Y-18453390D02*
X40738095Y-18501009D01*
X40738095Y-18501009D02*
X40785714Y-18596247D01*
X40785714Y-18596247D02*
X40785714Y-18834342D01*
X40785714Y-18834342D02*
X40738095Y-18929580D01*
X40738095Y-18929580D02*
X40690476Y-18977200D01*
X40690476Y-18977200D02*
X40595238Y-19024819D01*
X40595238Y-19024819D02*
X40309524Y-19024819D01*
X40309524Y-19024819D02*
X40214286Y-18977200D01*
X40214286Y-18977200D02*
X40166667Y-18929580D01*
X20206666Y-5134819D02*
X20206666Y-5849104D01*
X20206666Y-5849104D02*
X20159047Y-5991961D01*
X20159047Y-5991961D02*
X20063809Y-6087200D01*
X20063809Y-6087200D02*
X19920952Y-6134819D01*
X19920952Y-6134819D02*
X19825714Y-6134819D01*
X21206666Y-6134819D02*
X20635238Y-6134819D01*
X20920952Y-6134819D02*
X20920952Y-5134819D01*
X20920952Y-5134819D02*
X20825714Y-5277676D01*
X20825714Y-5277676D02*
X20730476Y-5372914D01*
X20730476Y-5372914D02*
X20635238Y-5420533D01*
X56604819Y-31738094D02*
X55604819Y-31738094D01*
X55604819Y-31738094D02*
X55604819Y-31499999D01*
X55604819Y-31499999D02*
X55652438Y-31357142D01*
X55652438Y-31357142D02*
X55747676Y-31261904D01*
X55747676Y-31261904D02*
X55842914Y-31214285D01*
X55842914Y-31214285D02*
X56033390Y-31166666D01*
X56033390Y-31166666D02*
X56176247Y-31166666D01*
X56176247Y-31166666D02*
X56366723Y-31214285D01*
X56366723Y-31214285D02*
X56461961Y-31261904D01*
X56461961Y-31261904D02*
X56557200Y-31357142D01*
X56557200Y-31357142D02*
X56604819Y-31499999D01*
X56604819Y-31499999D02*
X56604819Y-31738094D01*
X56604819Y-30214285D02*
X56604819Y-30785713D01*
X56604819Y-30499999D02*
X55604819Y-30499999D01*
X55604819Y-30499999D02*
X55747676Y-30595237D01*
X55747676Y-30595237D02*
X55842914Y-30690475D01*
X55842914Y-30690475D02*
X55890533Y-30785713D01*
X77833333Y-48929580D02*
X77785714Y-48977200D01*
X77785714Y-48977200D02*
X77642857Y-49024819D01*
X77642857Y-49024819D02*
X77547619Y-49024819D01*
X77547619Y-49024819D02*
X77404762Y-48977200D01*
X77404762Y-48977200D02*
X77309524Y-48881961D01*
X77309524Y-48881961D02*
X77261905Y-48786723D01*
X77261905Y-48786723D02*
X77214286Y-48596247D01*
X77214286Y-48596247D02*
X77214286Y-48453390D01*
X77214286Y-48453390D02*
X77261905Y-48262914D01*
X77261905Y-48262914D02*
X77309524Y-48167676D01*
X77309524Y-48167676D02*
X77404762Y-48072438D01*
X77404762Y-48072438D02*
X77547619Y-48024819D01*
X77547619Y-48024819D02*
X77642857Y-48024819D01*
X77642857Y-48024819D02*
X77785714Y-48072438D01*
X77785714Y-48072438D02*
X77833333Y-48120057D01*
X78785714Y-49024819D02*
X78214286Y-49024819D01*
X78500000Y-49024819D02*
X78500000Y-48024819D01*
X78500000Y-48024819D02*
X78404762Y-48167676D01*
X78404762Y-48167676D02*
X78309524Y-48262914D01*
X78309524Y-48262914D02*
X78214286Y-48310533D01*
X64833333Y-61024819D02*
X64500000Y-60548628D01*
X64261905Y-61024819D02*
X64261905Y-60024819D01*
X64261905Y-60024819D02*
X64642857Y-60024819D01*
X64642857Y-60024819D02*
X64738095Y-60072438D01*
X64738095Y-60072438D02*
X64785714Y-60120057D01*
X64785714Y-60120057D02*
X64833333Y-60215295D01*
X64833333Y-60215295D02*
X64833333Y-60358152D01*
X64833333Y-60358152D02*
X64785714Y-60453390D01*
X64785714Y-60453390D02*
X64738095Y-60501009D01*
X64738095Y-60501009D02*
X64642857Y-60548628D01*
X64642857Y-60548628D02*
X64261905Y-60548628D01*
X65166667Y-60024819D02*
X65785714Y-60024819D01*
X65785714Y-60024819D02*
X65452381Y-60405771D01*
X65452381Y-60405771D02*
X65595238Y-60405771D01*
X65595238Y-60405771D02*
X65690476Y-60453390D01*
X65690476Y-60453390D02*
X65738095Y-60501009D01*
X65738095Y-60501009D02*
X65785714Y-60596247D01*
X65785714Y-60596247D02*
X65785714Y-60834342D01*
X65785714Y-60834342D02*
X65738095Y-60929580D01*
X65738095Y-60929580D02*
X65690476Y-60977200D01*
X65690476Y-60977200D02*
X65595238Y-61024819D01*
X65595238Y-61024819D02*
X65309524Y-61024819D01*
X65309524Y-61024819D02*
X65214286Y-60977200D01*
X65214286Y-60977200D02*
X65166667Y-60929580D01*
X90046666Y-27774819D02*
X90046666Y-28489104D01*
X90046666Y-28489104D02*
X89999047Y-28631961D01*
X89999047Y-28631961D02*
X89903809Y-28727200D01*
X89903809Y-28727200D02*
X89760952Y-28774819D01*
X89760952Y-28774819D02*
X89665714Y-28774819D01*
X90951428Y-28108152D02*
X90951428Y-28774819D01*
X90713333Y-27727200D02*
X90475238Y-28441485D01*
X90475238Y-28441485D02*
X91094285Y-28441485D01*
X77833333Y-60929580D02*
X77785714Y-60977200D01*
X77785714Y-60977200D02*
X77642857Y-61024819D01*
X77642857Y-61024819D02*
X77547619Y-61024819D01*
X77547619Y-61024819D02*
X77404762Y-60977200D01*
X77404762Y-60977200D02*
X77309524Y-60881961D01*
X77309524Y-60881961D02*
X77261905Y-60786723D01*
X77261905Y-60786723D02*
X77214286Y-60596247D01*
X77214286Y-60596247D02*
X77214286Y-60453390D01*
X77214286Y-60453390D02*
X77261905Y-60262914D01*
X77261905Y-60262914D02*
X77309524Y-60167676D01*
X77309524Y-60167676D02*
X77404762Y-60072438D01*
X77404762Y-60072438D02*
X77547619Y-60024819D01*
X77547619Y-60024819D02*
X77642857Y-60024819D01*
X77642857Y-60024819D02*
X77785714Y-60072438D01*
X77785714Y-60072438D02*
X77833333Y-60120057D01*
X78214286Y-60120057D02*
X78261905Y-60072438D01*
X78261905Y-60072438D02*
X78357143Y-60024819D01*
X78357143Y-60024819D02*
X78595238Y-60024819D01*
X78595238Y-60024819D02*
X78690476Y-60072438D01*
X78690476Y-60072438D02*
X78738095Y-60120057D01*
X78738095Y-60120057D02*
X78785714Y-60215295D01*
X78785714Y-60215295D02*
X78785714Y-60310533D01*
X78785714Y-60310533D02*
X78738095Y-60453390D01*
X78738095Y-60453390D02*
X78166667Y-61024819D01*
X78166667Y-61024819D02*
X78785714Y-61024819D01*
X90046666Y-61774819D02*
X90046666Y-62489104D01*
X90046666Y-62489104D02*
X89999047Y-62631961D01*
X89999047Y-62631961D02*
X89903809Y-62727200D01*
X89903809Y-62727200D02*
X89760952Y-62774819D01*
X89760952Y-62774819D02*
X89665714Y-62774819D01*
X90999047Y-61774819D02*
X90522857Y-61774819D01*
X90522857Y-61774819D02*
X90475238Y-62251009D01*
X90475238Y-62251009D02*
X90522857Y-62203390D01*
X90522857Y-62203390D02*
X90618095Y-62155771D01*
X90618095Y-62155771D02*
X90856190Y-62155771D01*
X90856190Y-62155771D02*
X90951428Y-62203390D01*
X90951428Y-62203390D02*
X90999047Y-62251009D01*
X90999047Y-62251009D02*
X91046666Y-62346247D01*
X91046666Y-62346247D02*
X91046666Y-62584342D01*
X91046666Y-62584342D02*
X90999047Y-62679580D01*
X90999047Y-62679580D02*
X90951428Y-62727200D01*
X90951428Y-62727200D02*
X90856190Y-62774819D01*
X90856190Y-62774819D02*
X90618095Y-62774819D01*
X90618095Y-62774819D02*
X90522857Y-62727200D01*
X90522857Y-62727200D02*
X90475238Y-62679580D01*
X49238095Y-9074819D02*
X49238095Y-9884342D01*
X49238095Y-9884342D02*
X49285714Y-9979580D01*
X49285714Y-9979580D02*
X49333333Y-10027200D01*
X49333333Y-10027200D02*
X49428571Y-10074819D01*
X49428571Y-10074819D02*
X49619047Y-10074819D01*
X49619047Y-10074819D02*
X49714285Y-10027200D01*
X49714285Y-10027200D02*
X49761904Y-9979580D01*
X49761904Y-9979580D02*
X49809523Y-9884342D01*
X49809523Y-9884342D02*
X49809523Y-9074819D01*
X50809523Y-10074819D02*
X50238095Y-10074819D01*
X50523809Y-10074819D02*
X50523809Y-9074819D01*
X50523809Y-9074819D02*
X50428571Y-9217676D01*
X50428571Y-9217676D02*
X50333333Y-9312914D01*
X50333333Y-9312914D02*
X50238095Y-9360533D01*
X61833333Y-18929580D02*
X61785714Y-18977200D01*
X61785714Y-18977200D02*
X61642857Y-19024819D01*
X61642857Y-19024819D02*
X61547619Y-19024819D01*
X61547619Y-19024819D02*
X61404762Y-18977200D01*
X61404762Y-18977200D02*
X61309524Y-18881961D01*
X61309524Y-18881961D02*
X61261905Y-18786723D01*
X61261905Y-18786723D02*
X61214286Y-18596247D01*
X61214286Y-18596247D02*
X61214286Y-18453390D01*
X61214286Y-18453390D02*
X61261905Y-18262914D01*
X61261905Y-18262914D02*
X61309524Y-18167676D01*
X61309524Y-18167676D02*
X61404762Y-18072438D01*
X61404762Y-18072438D02*
X61547619Y-18024819D01*
X61547619Y-18024819D02*
X61642857Y-18024819D01*
X61642857Y-18024819D02*
X61785714Y-18072438D01*
X61785714Y-18072438D02*
X61833333Y-18120057D01*
X62690476Y-18358152D02*
X62690476Y-19024819D01*
X62452381Y-17977200D02*
X62214286Y-18691485D01*
X62214286Y-18691485D02*
X62833333Y-18691485D01*
X74238095Y-6954819D02*
X74238095Y-7764342D01*
X74238095Y-7764342D02*
X74285714Y-7859580D01*
X74285714Y-7859580D02*
X74333333Y-7907200D01*
X74333333Y-7907200D02*
X74428571Y-7954819D01*
X74428571Y-7954819D02*
X74619047Y-7954819D01*
X74619047Y-7954819D02*
X74714285Y-7907200D01*
X74714285Y-7907200D02*
X74761904Y-7859580D01*
X74761904Y-7859580D02*
X74809523Y-7764342D01*
X74809523Y-7764342D02*
X74809523Y-6954819D01*
X75238095Y-7050057D02*
X75285714Y-7002438D01*
X75285714Y-7002438D02*
X75380952Y-6954819D01*
X75380952Y-6954819D02*
X75619047Y-6954819D01*
X75619047Y-6954819D02*
X75714285Y-7002438D01*
X75714285Y-7002438D02*
X75761904Y-7050057D01*
X75761904Y-7050057D02*
X75809523Y-7145295D01*
X75809523Y-7145295D02*
X75809523Y-7240533D01*
X75809523Y-7240533D02*
X75761904Y-7383390D01*
X75761904Y-7383390D02*
X75190476Y-7954819D01*
X75190476Y-7954819D02*
X75809523Y-7954819D01*
X22746666Y-55134819D02*
X22746666Y-55849104D01*
X22746666Y-55849104D02*
X22699047Y-55991961D01*
X22699047Y-55991961D02*
X22603809Y-56087200D01*
X22603809Y-56087200D02*
X22460952Y-56134819D01*
X22460952Y-56134819D02*
X22365714Y-56134819D01*
X23127619Y-55134819D02*
X23746666Y-55134819D01*
X23746666Y-55134819D02*
X23413333Y-55515771D01*
X23413333Y-55515771D02*
X23556190Y-55515771D01*
X23556190Y-55515771D02*
X23651428Y-55563390D01*
X23651428Y-55563390D02*
X23699047Y-55611009D01*
X23699047Y-55611009D02*
X23746666Y-55706247D01*
X23746666Y-55706247D02*
X23746666Y-55944342D01*
X23746666Y-55944342D02*
X23699047Y-56039580D01*
X23699047Y-56039580D02*
X23651428Y-56087200D01*
X23651428Y-56087200D02*
X23556190Y-56134819D01*
X23556190Y-56134819D02*
X23270476Y-56134819D01*
X23270476Y-56134819D02*
X23175238Y-56087200D01*
X23175238Y-56087200D02*
X23127619Y-56039580D01*
X44833333Y-33024819D02*
X44500000Y-32548628D01*
X44261905Y-33024819D02*
X44261905Y-32024819D01*
X44261905Y-32024819D02*
X44642857Y-32024819D01*
X44642857Y-32024819D02*
X44738095Y-32072438D01*
X44738095Y-32072438D02*
X44785714Y-32120057D01*
X44785714Y-32120057D02*
X44833333Y-32215295D01*
X44833333Y-32215295D02*
X44833333Y-32358152D01*
X44833333Y-32358152D02*
X44785714Y-32453390D01*
X44785714Y-32453390D02*
X44738095Y-32501009D01*
X44738095Y-32501009D02*
X44642857Y-32548628D01*
X44642857Y-32548628D02*
X44261905Y-32548628D01*
X45785714Y-33024819D02*
X45214286Y-33024819D01*
X45500000Y-33024819D02*
X45500000Y-32024819D01*
X45500000Y-32024819D02*
X45404762Y-32167676D01*
X45404762Y-32167676D02*
X45309524Y-32262914D01*
X45309524Y-32262914D02*
X45214286Y-32310533D01*
D10*
%TO.C,D2*%
X65150000Y-32610000D02*
X65150000Y-29950000D01*
X65150000Y-32610000D02*
X66850000Y-32610000D01*
X66850000Y-32610000D02*
X66850000Y-29950000D01*
%TO.C,C5*%
X69859420Y-19490000D02*
X70140580Y-19490000D01*
X69859420Y-20510000D02*
X70140580Y-20510000D01*
%TO.C,R2*%
X64762742Y-49477500D02*
X65237258Y-49477500D01*
X64762742Y-50522500D02*
X65237258Y-50522500D01*
%TO.C,J2*%
X15340000Y-28680000D02*
X35900000Y-28680000D01*
X15340000Y-31700000D02*
X35900000Y-31700000D01*
X15340000Y-36600000D02*
X35900000Y-36600000D01*
X15340000Y-38100000D02*
X35900000Y-38100000D01*
X15340000Y-38720000D02*
X15340000Y-28680000D01*
X17700000Y-38720000D02*
X15340000Y-38720000D01*
X35900000Y-28680000D02*
X35900000Y-38720000D01*
X35900000Y-38720000D02*
X18300000Y-38720000D01*
X18440000Y-39330000D02*
X17560000Y-39330000D01*
X18000000Y-38720000D01*
X18440000Y-39330000D01*
G36*
X18440000Y-39330000D02*
G01*
X17560000Y-39330000D01*
X18000000Y-38720000D01*
X18440000Y-39330000D01*
G37*
%TO.C,C3*%
X39859420Y-19490000D02*
X40140580Y-19490000D01*
X39859420Y-20510000D02*
X40140580Y-20510000D01*
%TO.C,J1*%
X15340000Y-6680000D02*
X25740000Y-6680000D01*
X15340000Y-9700000D02*
X25740000Y-9700000D01*
X15340000Y-14600000D02*
X25740000Y-14600000D01*
X15340000Y-16100000D02*
X25740000Y-16100000D01*
X15340000Y-16720000D02*
X15340000Y-6680000D01*
X17700000Y-16720000D02*
X15340000Y-16720000D01*
X25740000Y-6680000D02*
X25740000Y-16720000D01*
X25740000Y-16720000D02*
X18300000Y-16720000D01*
X18440000Y-17330000D02*
X17560000Y-17330000D01*
X18000000Y-16720000D01*
X18440000Y-17330000D01*
G36*
X18440000Y-17330000D02*
G01*
X17560000Y-17330000D01*
X18000000Y-16720000D01*
X18440000Y-17330000D01*
G37*
%TO.C,D1*%
X57150000Y-32610000D02*
X57150000Y-29950000D01*
X57150000Y-32610000D02*
X58850000Y-32610000D01*
X58850000Y-32610000D02*
X58850000Y-29950000D01*
%TO.C,C1*%
X77859420Y-49490000D02*
X78140580Y-49490000D01*
X77859420Y-50510000D02*
X78140580Y-50510000D01*
%TO.C,R3*%
X64762742Y-61477500D02*
X65237258Y-61477500D01*
X64762742Y-62522500D02*
X65237258Y-62522500D01*
%TO.C,J4*%
X80100000Y-17280000D02*
X97700000Y-17280000D01*
X80100000Y-27320000D02*
X80100000Y-17280000D01*
X98300000Y-17280000D02*
X100660000Y-17280000D01*
X100660000Y-17280000D02*
X100660000Y-27320000D01*
X100660000Y-17900000D02*
X80100000Y-17900000D01*
X100660000Y-19400000D02*
X80100000Y-19400000D01*
X100660000Y-24300000D02*
X80100000Y-24300000D01*
X100660000Y-27320000D02*
X80100000Y-27320000D01*
X98000000Y-17280000D02*
X97560000Y-16670000D01*
X98440000Y-16670000D01*
X98000000Y-17280000D01*
G36*
X98000000Y-17280000D02*
G01*
X97560000Y-16670000D01*
X98440000Y-16670000D01*
X98000000Y-17280000D01*
G37*
%TO.C,C2*%
X77859420Y-61490000D02*
X78140580Y-61490000D01*
X77859420Y-62510000D02*
X78140580Y-62510000D01*
%TO.C,J5*%
X80100000Y-51280000D02*
X97700000Y-51280000D01*
X80100000Y-61320000D02*
X80100000Y-51280000D01*
X98300000Y-51280000D02*
X100660000Y-51280000D01*
X100660000Y-51280000D02*
X100660000Y-61320000D01*
X100660000Y-51900000D02*
X80100000Y-51900000D01*
X100660000Y-53400000D02*
X80100000Y-53400000D01*
X100660000Y-58300000D02*
X80100000Y-58300000D01*
X100660000Y-61320000D02*
X80100000Y-61320000D01*
X98000000Y-51280000D02*
X97560000Y-50670000D01*
X98440000Y-50670000D01*
X98000000Y-51280000D01*
G36*
X98000000Y-51280000D02*
G01*
X97560000Y-50670000D01*
X98440000Y-50670000D01*
X98000000Y-51280000D01*
G37*
%TO.C,U1*%
X48620000Y-10620000D02*
X50000000Y-10620000D01*
X48620000Y-12000000D02*
X48620000Y-10620000D01*
X48620000Y-13270000D02*
X48620000Y-18460000D01*
X48620000Y-13270000D02*
X51380000Y-13270000D01*
X48620000Y-18460000D02*
X51380000Y-18460000D01*
X51380000Y-13270000D02*
X51380000Y-18460000D01*
%TO.C,C4*%
X61859420Y-19490000D02*
X62140580Y-19490000D01*
X61859420Y-20510000D02*
X62140580Y-20510000D01*
%TO.C,U2*%
X73150000Y-8590000D02*
X76910000Y-8590000D01*
X73150000Y-15410000D02*
X76910000Y-15410000D01*
X76910000Y-8590000D02*
X76910000Y-9850000D01*
X76910000Y-15410000D02*
X76910000Y-14150000D01*
X71870000Y-8690000D02*
X71630000Y-8360000D01*
X72110000Y-8360000D01*
X71870000Y-8690000D01*
G36*
X71870000Y-8690000D02*
G01*
X71630000Y-8360000D01*
X72110000Y-8360000D01*
X71870000Y-8690000D01*
G37*
%TO.C,J3*%
X15340000Y-56680000D02*
X30820000Y-56680000D01*
X15340000Y-59700000D02*
X30820000Y-59700000D01*
X15340000Y-64600000D02*
X30820000Y-64600000D01*
X15340000Y-66100000D02*
X30820000Y-66100000D01*
X15340000Y-66720000D02*
X15340000Y-56680000D01*
X17700000Y-66720000D02*
X15340000Y-66720000D01*
X30820000Y-56680000D02*
X30820000Y-66720000D01*
X30820000Y-66720000D02*
X18300000Y-66720000D01*
X18440000Y-67330000D02*
X17560000Y-67330000D01*
X18000000Y-66720000D01*
X18440000Y-67330000D01*
G36*
X18440000Y-67330000D02*
G01*
X17560000Y-67330000D01*
X18000000Y-66720000D01*
X18440000Y-67330000D01*
G37*
%TO.C,R1*%
X44762742Y-33477500D02*
X45237258Y-33477500D01*
X44762742Y-34522500D02*
X45237258Y-34522500D01*
%TD*%
M02*
