M48
; DRILL file {KiCad 9.0.9-9.0.9~ubuntu24.04.1} date 2026-07-06T20:21:10+0800
; FORMAT={-:-/ absolute / metric / decimal}
; #@! TF.CreationDate,2026-07-06T20:21:10+08:00
; #@! TF.GenerationSoftware,Kicad,Pcbnew,9.0.9-9.0.9~ubuntu24.04.1
; #@! TF.FileFunction,MixedPlating,1,2
FMAT,2
METRIC
; #@! TA.AperFunction,Plated,PTH,ViaDrill
T1C0.300
; #@! TA.AperFunction,Plated,PTH,ComponentDrill
T2C1.000
; #@! TA.AperFunction,Plated,PTH,ComponentDrill
T3C1.300
%
G90
G05
T1
X81.665Y-63.255
T2
X50.0Y-12.0
X50.0Y-14.54
X50.0Y-17.08
T3
X18.0Y-12.0
X18.0Y-34.0
X18.0Y-62.0
X23.08Y-12.0
X23.08Y-34.0
X23.08Y-62.0
X28.16Y-34.0
X28.16Y-62.0
X33.24Y-34.0
X82.76Y-22.0
X82.76Y-56.0
X87.84Y-22.0
X87.84Y-56.0
X92.92Y-22.0
X92.92Y-56.0
X98.0Y-22.0
X98.0Y-56.0
M30
